<svg width="148" height="148" viewBox="0 0 148 148" fill="none" xmlns="http://www.w3.org/2000/svg">
<rect width="148" height="148" rx="74" fill="#FFF5DE"/>
<g clip-path="url(#clip0_3735_1917)">
<path d="M50.7145 80.3892L47.1786 84.3082L45.0531 88.3721C45.0182 88.4389 45 88.5131 45 88.5885V102.533C45 102.595 45.0121 102.655 45.0355 102.712C45.059 102.769 45.0934 102.82 45.1367 102.864C45.1801 102.907 45.2316 102.941 45.2882 102.965C45.3448 102.988 45.4055 103 45.4668 103H54.3918C54.4978 103 54.6006 102.964 54.6834 102.898C54.7662 102.832 54.8239 102.739 54.8472 102.636L57.3986 91.2988L56.897 86.6965L50.7145 80.3892Z" fill="#FFC3AA"/>
<path d="M58.1473 87.9712L57.398 91.2983H55.6149C52.9724 91.2983 50.8302 89.1561 50.8302 86.5136V85.5237C50.8302 85.4767 50.821 85.4302 50.803 85.3868C50.785 85.3433 50.7586 85.3039 50.7254 85.2706C50.6921 85.2374 50.6527 85.211 50.6092 85.193C50.5658 85.175 50.5193 85.1658 50.4722 85.1658H50.0495C49.0292 85.1674 48.0309 84.8691 47.1787 84.308L49.8546 79.1919L54.1084 81.1467L58.1473 87.9712Z" fill="#FFA78E"/>
<path d="M95.5709 85.157C95.5937 85.153 96.1697 85.1462 96.6151 85.1415C97.0529 85.1368 97.4887 85.0719 97.905 84.936C100.849 83.9743 103 80.9256 103 77.3135V74.3367C103 72.1446 101.472 70.3681 99.5172 70.3681L94.3633 70.3677L95.5709 85.157Z" fill="#FFC3AA"/>
<path d="M79.9724 93.7356C58.388 93.7356 60.2368 73.9999 60.2368 73.9999C60.2368 73.9999 56.2168 55.0732 78.8155 55.0732C98.0429 55.0732 96.887 70.5247 96.6471 72.7306C96.6287 72.8997 96.7711 73.0289 96.7711 73.0289L96.8068 83.9093C96.8068 86.9814 95.6709 89.9165 93.6715 92.0162L79.9724 93.7356Z" fill="#FFD9C3"/>
<path d="M98.8109 59.0145C98.824 55.0474 95.9144 51.114 91.6226 50.5771C90.9893 50.4979 90.4857 50.0706 90.3535 49.5033C90.1165 48.4857 89.4895 47.5637 88.6895 46.8288C87.6343 45.8569 85.6903 45.1072 84.0023 45.1072L82.499 45H72.6379C70.9499 45 69.4783 45.6211 68.423 46.5931C67.6226 47.3283 67.0612 48.2648 66.8243 49.2829C66.6923 49.8504 66.1883 50.2768 65.5553 50.3571C61.3236 50.8939 57.941 54.24 57.963 58.2647V70.3967C59.4658 70.3967 60.684 71.5018 60.684 72.8649V73.029C63.0745 72.2036 65.0043 70.1245 65.0043 67.8043V63.8209C65.0043 60.1596 68.2318 57.1843 72.2464 57.103C72.3351 57.1481 72.4224 57.191 72.5067 57.2298C76.6552 59.196 80.8028 59.1955 84.9512 57.2285C85.0361 57.1888 85.1218 57.1466 85.2074 57.103C86.4052 56.8952 87.4264 57.0819 88.154 57.7214C90.6911 58.7879 92.4508 61.1174 92.4508 63.8209V67.8043C92.4508 70.1245 94.3805 72.2036 96.7711 73.029V72.8931C96.7711 72.8253 96.7741 72.7579 96.7799 72.6913C96.7799 70.6465 97.7635 70.1112 99.2062 70.1083L98.8109 59.0145Z" fill="#E07A69"/>
<path d="M99.518 70.3683C98.0009 70.3707 96.772 71.5166 96.772 72.8937L96.7452 58.2641C96.7592 54.2974 93.4448 50.8922 89.1526 50.3554C88.52 50.276 88.0159 49.8489 87.8841 49.2817C87.6472 48.2641 87.0859 47.3282 86.2853 46.593C85.2304 45.6209 83.7588 45 82.0713 45H84.8185C86.5059 45 87.9775 45.6209 89.0325 46.593C89.8331 47.3282 90.3944 48.2641 90.6313 49.2817C90.7631 49.8489 91.2673 50.276 91.8998 50.3554C96.192 50.8922 99.5063 54.2974 99.4935 58.2641L99.518 70.3683Z" fill="#D16752"/>
<path d="M90.6154 55.9068C89.9793 56.5476 89.0598 57.2231 88.1543 57.7214C87.2545 57.3432 86.2578 57.1239 85.2076 57.103C85.7467 56.9174 86.2848 56.6922 86.8228 56.4378C87.719 56.0189 88.7413 55.3117 89.3715 54.6745C89.7122 54.3313 90.2666 54.3291 90.6096 54.6687C90.7746 54.8321 90.8678 55.0544 90.8689 55.2866C90.87 55.5188 90.7788 55.7419 90.6154 55.9068ZM66.8649 55.9068C67.5009 56.5476 68.4204 57.2232 69.3261 57.7215C70.2259 57.3434 71.2224 57.1239 72.2728 57.103C71.7337 56.9174 71.1956 56.6922 70.6576 56.4378C69.7613 56.0189 68.7391 55.3117 68.1089 54.6745C67.7682 54.3313 67.2138 54.3291 66.8708 54.6687C66.7891 54.7496 66.7241 54.8458 66.6796 54.9518C66.6351 55.0578 66.6119 55.1716 66.6113 55.2865C66.6108 55.4015 66.6329 55.5155 66.6764 55.6219C66.7199 55.7283 66.7839 55.8252 66.8649 55.9068Z" fill="#D16752"/>
<path d="M82.0343 63.5842L80.0398 58.4942C79.7095 57.6568 78.845 57.0991 77.877 57.0991H68.4643C67.4877 57.0991 66.6174 57.6665 66.2936 58.5146L64.3564 63.5842H82.0343Z" fill="#999999"/>
<path d="M92.1179 65.8372L92.1171 68.4811H53.2812V65.5274C53.2812 64.2391 54.3268 63.1934 55.6153 63.1934H87.57L89.784 63.5032C91.0722 63.5032 92.1179 64.5489 92.1179 65.8372Z" fill="#F4F4F4"/>
<path d="M92.4518 68.4812V86.5138C92.4518 87.8034 91.4062 88.8478 90.1177 88.8478H87.1162C88.4046 88.8478 89.4503 87.8034 89.4503 86.5138V68.4812L90.7947 67.7578L92.4518 68.4812Z" fill="#686868"/>
<path d="M92.4518 65.5274V68.4811H89.4503V65.5274C89.4503 64.2391 88.4047 63.1934 87.1162 63.1934H90.1177C91.4062 63.1934 92.4518 64.2391 92.4518 65.5274Z" fill="#E5EAEA"/>
<path d="M47.6797 63.1313C47.6797 61.5862 48.9324 60.3335 50.4775 60.3335H56.6561C56.6738 60.3335 56.6913 60.3336 56.7089 60.3339C58.1287 60.8714 58.7108 61.6037 58.7108 63.1313C58.7108 64.6765 58.2013 65.4406 56.6561 65.4406L50.4775 65.4845C48.9324 65.4845 47.6797 63.1313 47.6797 63.1313Z" fill="#FFD9C3"/>
<path d="M59.4536 63.1306C59.4536 63.9032 59.1408 64.6034 58.6343 65.1098C58.1278 65.6163 57.4288 65.9291 56.6562 65.9291L53.4661 66.4015L50.4769 65.9291C48.9318 65.9291 47.6797 64.6769 47.6797 63.1306H53.9115C54.6841 63.1306 55.3832 62.8178 55.8896 62.3113C56.3961 61.8049 56.7089 61.1071 56.7089 60.3345C58.2293 60.3625 59.4536 61.603 59.4536 63.1306Z" fill="#FFC3AA"/>
<path d="M47.252 68.7265C47.252 67.1814 48.5046 65.9287 50.0498 65.9287H59.1503C59.168 65.9287 59.1856 65.9288 59.2031 65.9292C60.623 66.4666 61.205 67.1989 61.205 68.7265C61.205 70.2717 60.6955 71.0358 59.1503 71.0358L50.0498 71.0797C48.5046 71.0797 47.252 68.7265 47.252 68.7265Z" fill="#FFD9C3"/>
<path d="M61.9478 68.7263C61.9478 69.4989 61.635 70.1991 61.1286 70.7055C60.6221 71.212 59.923 71.5248 59.1504 71.5248L54.3223 71.9043L50.0492 71.5248C48.5041 71.5248 47.252 70.2726 47.252 68.7263H56.4056C57.1782 68.7263 57.8773 68.4135 58.3838 67.907C58.8902 67.4006 59.203 66.7028 59.203 65.9302C60.7236 65.9582 61.9478 67.1987 61.9478 68.7263Z" fill="#FFC3AA"/>
<path d="M47.252 79.9172C47.252 78.372 48.5046 77.1194 50.0498 77.1194L54.2285 76.6582L60.4787 77.1194C60.4963 77.1194 61.9354 78.0795 61.9529 78.0799C63.3728 78.6173 64.4002 78.3896 64.4002 79.9172C64.4002 81.4623 63.8907 82.2264 62.3455 82.2264L50.0498 82.2704C48.5046 82.2704 47.252 79.9172 47.252 79.9172Z" fill="#FFD9C3"/>
<path d="M65.1429 79.9167C65.1429 80.6893 64.8301 81.3895 64.3237 81.896C63.8172 82.4025 63.1181 82.7152 62.3455 82.7152H50.0492C48.5041 82.7152 47.252 81.463 47.252 79.9167H59.6009C60.3734 79.9167 61.0725 79.604 61.579 79.0975C62.0855 78.591 62.3982 77.8932 62.3982 77.1206C63.9188 77.1486 65.1429 78.3891 65.1429 79.9167Z" fill="#FFC3AA"/>
<path d="M47.252 74.3213C47.252 72.7761 48.5046 71.5234 50.0498 71.5234H61.1785C61.1962 71.5234 61.2138 71.5236 61.2313 71.5239C62.6512 72.0613 63.2332 72.7937 63.2332 74.3213C63.2332 75.8664 62.7237 76.6305 61.1785 76.6305L50.0498 76.6744C48.5046 76.6744 47.252 74.3213 47.252 74.3213Z" fill="#FFD9C3"/>
<path d="M63.9759 74.321C63.9759 75.0936 62.9058 77.1195 62.9058 77.1195L61.8063 77.8465L60.8629 77.1195H50.0492C48.5041 77.1195 47.252 75.8673 47.252 74.321H58.4338C59.2064 74.321 59.9055 74.0083 60.4119 73.5018C60.9184 72.9953 61.2312 72.2975 61.2312 71.5249C62.7518 71.5529 63.9759 72.7934 63.9759 74.321Z" fill="#FFC3AA"/>
<path d="M92.5267 102.39V99.4471C92.5267 98.4957 92.6844 97.5508 92.9934 96.651L93.7627 94.4107C94.6304 91.8844 94.5565 89.1297 93.5547 86.6534C92.865 84.9485 92.1152 83.1194 91.697 82.1766C91.3056 81.2938 90.0277 78.6933 90.0277 78.6933C89.7335 78.0793 89.5718 77.4103 89.5532 76.7298L89.4555 73.1684C89.4471 72.8617 89.322 72.5698 89.1056 72.3522C88.8893 72.1346 88.5981 72.0078 88.2915 71.9976L87.8596 71.9832C86.1534 71.9264 84.7254 73.2662 84.6733 74.9727L84.6171 76.8115C84.5831 77.9241 84.6291 79.0377 84.7546 80.1436L85.4993 86.7046C85.6201 87.7685 85.2543 88.8376 84.4844 89.5818C84.0801 89.9726 83.6179 90.2987 83.1142 90.5486L82.1513 91.0263C81.4411 91.3787 80.6694 91.5901 79.8787 91.6489L79.8495 91.6511C79.3455 91.6888 78.8388 91.6659 78.3403 91.583C78.3403 91.583 77.5739 91.6808 77.3552 91.6194C75.7097 91.1581 72.1996 90.3221 69.6499 89.6809C66.2059 88.7501 63.4149 83.2519 62.6702 81.2905L61.4895 78.8517C61.2281 77.6808 60.8603 76.0157 59.8183 75.6239C59.171 75.3803 58.4647 75.3399 57.7938 75.5083C57.0656 75.6896 56.6014 76.403 56.7305 77.1421L57.8714 83.6707C57.9629 84.1945 58.1314 84.7018 58.3714 85.1763L61.5889 91.5375C62.2081 92.7615 63.2705 93.7036 64.5599 94.1718L77.8745 99.0067C78.569 99.2589 79.1691 99.7188 79.5932 100.324C80.0173 100.929 80.2447 101.65 80.2448 102.389V102.389C80.2448 102.521 80.2969 102.646 80.3897 102.739C80.4825 102.832 80.6083 102.884 80.7396 102.884H92.0317C92.0966 102.884 92.161 102.872 92.2211 102.847C92.2811 102.822 92.3357 102.785 92.3817 102.74C92.4277 102.694 92.4642 102.639 92.489 102.579C92.5139 102.519 92.5267 102.455 92.5267 102.39Z" fill="#FFC3AA"/>
<path d="M78.3401 91.5834C76.7518 92.2229 75.0164 92.5754 73.1994 92.5754C68.7076 92.5754 64.4866 90.3826 61.9098 86.71C60.2865 84.3982 59.4287 81.6802 59.4287 78.8526C59.4287 77.7404 59.5617 76.6598 59.815 75.6235C60.8583 76.0133 61.6915 76.9072 61.953 78.08L62.6695 81.2904C62.8125 81.9307 63.0699 82.5399 63.4291 83.0888L65.6196 86.431C66.5861 87.9062 68.0721 88.9639 69.7824 89.394C72.3322 90.0347 76.0305 90.9742 77.6759 91.4351C77.8955 91.4971 78.1173 91.546 78.3401 91.5834Z" fill="#FFA78E"/>
<path d="M79.7825 69.5387C77.9209 68.2313 75.6504 67.4629 73.1993 67.4629C66.8831 67.4629 61.7627 72.562 61.7627 78.852C61.7627 81.276 62.5239 83.5224 63.8202 85.369C65.8869 88.3146 69.318 90.2413 73.1995 90.2413C79.5152 90.2413 84.6361 85.1414 84.6361 78.8525C84.6361 75.0038 82.7187 71.5996 79.7825 69.5387Z" fill="#999999"/>
<path d="M80.2377 78.8518C80.2377 75.7149 78.4414 74.0012 76.0336 71.9029C75.1353 71.5292 74.1718 71.3371 73.1988 71.3379C69.0861 71.3379 65.752 74.702 65.752 78.852C65.7507 79.8545 65.9492 80.8473 66.3358 81.7723C67.8982 84.2606 70.1126 85.6282 73.1988 85.6282C77.3116 85.6281 80.2377 83.0018 80.2377 78.8518Z" fill="#F4F4F4"/>
<path d="M80.6457 78.8523C80.6457 83.0021 77.3116 86.3654 73.1991 86.3654C70.1124 86.3654 67.4656 84.4714 66.3359 81.7721C67.2341 82.1461 68.1976 82.3381 69.1706 82.3369C73.2831 82.3369 76.6172 78.9725 76.6172 74.8227C76.6172 73.7875 76.4095 72.8002 76.0337 71.9028C78.74 73.0266 80.6457 75.7154 80.6457 78.8523Z" fill="#E5EAEA"/>
</g>
<defs>
<clipPath id="clip0_3735_1917">
<rect width="58" height="58" fill="white" transform="translate(45 45)"/>
</clipPath>
</defs>
</svg>
