<svg width="148" height="148" viewBox="0 0 148 148" fill="none" xmlns="http://www.w3.org/2000/svg">
<rect width="148" height="148" rx="74" fill="#FFF5DE"/>
<g clip-path="url(#clip0_3735_1868)">
<path d="M85.7234 45C85.4779 45 85.2425 45.0975 85.0689 45.2711C84.8954 45.4446 84.7979 45.68 84.7979 45.9255V49.0106H86.6489V45.9255C86.6489 45.68 86.5514 45.4446 86.3778 45.2711C86.2042 45.0975 85.9688 45 85.7234 45Z" fill="#5CA8D3"/>
<path d="M62.2766 55.1807L56.1064 61.3509L62.2766 58.8828C64.3128 58.8828 65.9788 57.2169 65.9788 55.1807H62.2766Z" fill="#FDA162"/>
<path d="M49.9365 55.1807H62.2769C62.2769 57.2168 60.611 58.8828 58.5748 58.8828L56.1067 61.3509L53.6387 58.8828C51.6024 58.8828 49.9365 57.2169 49.9365 55.1807Z" fill="#FDCE6E"/>
<path d="M62.2766 58.8828L56.1064 65.053L62.2766 62.585C64.3128 62.585 65.9788 60.919 65.9788 58.8828H62.2766Z" fill="#FDA162"/>
<path d="M49.9365 58.8828H62.2769C62.2769 60.9189 60.611 62.585 58.5748 62.585L56.1067 65.053L53.6387 62.585C51.6024 62.585 49.9365 60.919 49.9365 58.8828Z" fill="#FDCE6E"/>
<path d="M62.2766 62.585L56.1064 68.7552L62.2766 66.2871C64.3128 66.2871 65.9788 64.6212 65.9788 62.585H62.2766Z" fill="#FDA162"/>
<path d="M49.9365 62.585H62.2769C62.2769 64.6211 60.611 66.2871 58.5748 66.2871L56.1067 68.7552L53.6387 66.2871C51.6024 66.2871 49.9365 64.6212 49.9365 62.585Z" fill="#FDCE6E"/>
<path d="M62.2766 66.2871L56.1064 72.4573L62.2766 69.9893C64.3128 69.9893 65.9788 68.3233 65.9788 66.2871H62.2766Z" fill="#FDA162"/>
<path d="M49.9365 66.2871H62.2769C62.2769 68.3232 60.611 69.9893 58.5748 69.9893L56.1067 72.4573L53.6387 69.9893C51.6024 69.9893 49.9365 68.3232 49.9365 66.2871Z" fill="#FDCE6E"/>
<path d="M85.7236 47.7769V61.3513L96.8301 58.8833C96.83 52.7488 91.858 47.7769 85.7236 47.7769Z" fill="#66C6FE"/>
<path d="M93.1278 58.8828L83.8725 61.3509L74.6172 58.8828C74.6172 52.7484 79.5891 47.7764 85.7236 47.7764C89.8132 47.7765 93.1278 52.7484 93.1278 58.8828Z" fill="#99D9FF"/>
<path d="M73.3828 58.8828H94.3615V62.585H73.3828V58.8828Z" fill="#5CA8D3"/>
<path d="M94.3623 58.8828H98.0644V62.585H94.3623V58.8828Z" fill="#5389A9"/>
<path d="M66.2873 67.2127H49.6277C49.1164 67.2127 48.7021 66.7983 48.7021 66.2872C48.7021 65.7761 49.1164 65.3617 49.6277 65.3617H66.2873C66.7985 65.3617 67.2128 65.7761 67.2128 66.2872C67.2128 66.7983 66.7985 67.2127 66.2873 67.2127ZM66.2873 63.5106H49.6277C49.1164 63.5106 48.7021 63.0962 48.7021 62.5851C48.7021 62.0739 49.1164 61.6595 49.6277 61.6595H66.2873C66.7985 61.6595 67.2128 62.0739 67.2128 62.5851C67.2128 63.0962 66.7985 63.5106 66.2873 63.5106ZM66.2873 59.8084H49.6277C49.3822 59.8084 49.1468 59.7109 48.9732 59.5373C48.7997 59.3638 48.7021 59.1284 48.7021 58.8829C48.7021 58.6375 48.7997 58.402 48.9732 58.2285C49.1468 58.0549 49.3822 57.9574 49.6277 57.9574H66.2873C66.5327 57.9574 66.7681 58.0549 66.9417 58.2285C67.1152 58.402 67.2128 58.6375 67.2128 58.8829C67.2128 59.1284 67.1152 59.3638 66.9417 59.5373C66.7681 59.7109 66.5327 59.8084 66.2873 59.8084ZM66.2873 56.1064H49.6277C49.1164 56.1064 48.7021 55.692 48.7021 55.1809C48.7021 54.6698 49.1164 54.2554 49.6277 54.2554H66.2873C66.7985 54.2554 67.2128 54.6698 67.2128 55.1809C67.2128 55.692 66.7985 56.1064 66.2873 56.1064Z" fill="#FDFA7B"/>
<path d="M72.458 58.8828H74.309V72.4573H72.458V58.8828Z" fill="#5389A9"/>
<path d="M97.1387 58.8828H98.9897V72.4573H97.1387V58.8828Z" fill="#496A7E"/>
<path d="M96.2129 93.8467V102.075C96.2129 102.32 96.3104 102.555 96.484 102.729C96.6575 102.903 96.8929 103 97.1384 103C97.3839 103 97.6193 102.903 97.7928 102.729C97.9664 102.555 98.0639 102.32 98.0639 102.075V93.8467H96.2129Z" fill="#B1786B"/>
<path d="M49.9365 93.8467V102.075C49.9365 102.586 50.3508 103 50.862 103C51.3733 103 51.7875 102.586 51.7875 102.075V93.8467H49.9365Z" fill="#CB9385"/>
<path d="M74.0003 72.4575L47.1602 77.3938V81.0568L92.8192 90.0426L97.1017 97.5305C98.0198 97.9921 99.0856 98.3724 100.84 98.3724V77.3935L74.0003 72.4575Z" fill="#FDA162"/>
<path d="M101.162 69.9893V77.3934H97.4604L94.8447 74.0003L97.4604 69.9893H101.162Z" fill="#99D9FF"/>
<path d="M46.8379 69.9893H97.4608V77.3935H46.8379V69.9893Z" fill="#CCECFF"/>
<path d="M97.1019 81.0957H47.1592V98.3723C51.6327 98.3723 51.6327 95.9043 56.1062 95.9043C60.5798 95.9043 60.5797 98.3723 65.0533 98.3723C69.5269 98.3723 69.5268 95.9043 74.0004 95.9043C78.474 95.9043 78.4739 98.3723 82.9474 98.3723C87.4208 98.3723 87.4208 95.9043 91.8942 95.9043C94.6125 95.9043 95.6796 96.8154 97.1018 97.5305V81.0957H97.1019Z" fill="#FDCE6E"/>
<path d="M94.3249 88.1913C94.8361 88.1913 95.2504 87.777 95.2504 87.2658C95.2504 86.7547 94.8361 86.3403 94.3249 86.3403C93.8138 86.3403 93.3994 86.7547 93.3994 87.2658C93.3994 87.777 93.8138 88.1913 94.3249 88.1913Z" fill="#FDA162"/>
<path d="M90.6228 91.8935C91.1339 91.8935 91.5483 91.4791 91.5483 90.968C91.5483 90.4568 91.1339 90.0425 90.6228 90.0425C90.1116 90.0425 89.6973 90.4568 89.6973 90.968C89.6973 91.4791 90.1116 91.8935 90.6228 91.8935Z" fill="#FDA162"/>
<path d="M99.2981 59.8085H72.1491C71.9037 59.8085 71.6683 59.711 71.4947 59.5375C71.3211 59.3639 71.2236 59.1285 71.2236 58.883C71.2236 58.6376 71.3211 58.4022 71.4947 58.2286C71.6683 58.055 71.9037 57.9575 72.1491 57.9575H99.2981C99.5436 57.9575 99.779 58.055 99.9526 58.2286C100.126 58.4022 100.224 58.6376 100.224 58.883C100.224 59.0046 100.2 59.1249 100.153 59.2372C100.107 59.3495 100.039 59.4516 99.9526 59.5375C99.8667 59.6235 99.7646 59.6916 99.6523 59.7381C99.54 59.7846 99.4197 59.8086 99.2981 59.8085Z" fill="#5389A9"/>
</g>
<defs>
<clipPath id="clip0_3735_1868">
<rect width="58" height="58" fill="white" transform="translate(45 45)"/>
</clipPath>
</defs>
</svg>
