<svg width="149" height="148" viewBox="0 0 149 148" fill="none" xmlns="http://www.w3.org/2000/svg">
<rect x="0.5" width="148" height="148" rx="74" fill="#FFF5DE"/>
<g clip-path="url(#clip0_3735_1859)">
<path d="M51.2773 80.1172H55.8086V84.6484H59.207V48.3984H66.0039V51.7995C64.9885 52.3872 64.3047 53.4844 64.3047 54.7422V57.0078C64.3047 57.6335 64.8118 58.1406 65.4375 58.1406H69.9688C70.5944 58.1406 71.1016 57.6335 71.1016 57.0078V54.7422C71.1016 53.4845 70.4178 52.3872 69.4023 51.7995V48.3984H79.5977V51.7995C78.5822 52.3872 77.8984 53.4844 77.8984 54.7422V57.0078C77.8984 57.6335 78.4056 58.1406 79.0312 58.1406H83.5625C84.1882 58.1406 84.6953 57.6335 84.6953 57.0078V54.7422C84.6953 53.4845 84.0115 52.3872 82.9961 51.7995V48.3984H89.793V84.6484H93.1914V80.1172H97.7227V84.6484H101.121V46.6992C101.121 45.7608 100.36 45 99.4219 45H49.5781C48.6397 45 47.8789 45.7608 47.8789 46.6992V84.6484H51.2773V80.1172ZM93.1914 48.3984H97.7227V52.9297H93.1914V48.3984ZM93.1914 56.3281H97.7227V60.8594H93.1914V56.3281ZM93.1914 64.2578H97.7227V68.7891H93.1914V64.2578ZM93.1914 72.1875H97.7227V76.7188H93.1914V72.1875ZM51.2773 48.3984H55.8086V52.9297H51.2773V48.3984ZM51.2773 56.3281H55.8086V60.8594H51.2773V56.3281ZM51.2773 64.2578H55.8086V68.7891H51.2773V64.2578ZM51.2773 72.1875H55.8086V76.7188H51.2773V72.1875Z" fill="#FDB440"/>
<path d="M62.6055 72.7539H86.3945V84.6484H62.6055V72.7539ZM83.7861 88.0469H65.2139L61.6444 100.844C61.3423 101.927 62.1566 103 63.2811 103H85.7187C86.8431 103 87.6575 101.927 87.3554 100.844L83.7861 88.0469ZM101.234 88.0469H87.3143L90.4739 99.375H101.801C102.739 99.375 103.5 98.6142 103.5 97.6758V90.3125C103.5 89.0612 102.486 88.0469 101.234 88.0469ZM47.7656 88.0469C46.5143 88.0469 45.5 89.0612 45.5 90.3125V97.6758C45.5 98.6142 46.2608 99.375 47.1992 99.375H58.5261L61.6857 88.0469H47.7656Z" fill="#FDB440"/>
</g>
<defs>
<clipPath id="clip0_3735_1859">
<rect width="58" height="58" fill="white" transform="translate(45.5 45)"/>
</clipPath>
</defs>
</svg>
