<svg width="148" height="148" viewBox="0 0 148 148" fill="none" xmlns="http://www.w3.org/2000/svg">
<rect width="148" height="148" rx="74" fill="#FFF5DE"/>
<g clip-path="url(#clip0_3735_1900)">
<path d="M55.8969 39H92.1038C94.77 39 96.9314 41.1614 96.9314 43.8276V99.3448C96.9314 102.011 94.77 104.172 92.1038 104.172H55.8969C53.2307 104.172 51.0693 102.011 51.0693 99.3448V43.8276C51.0693 41.1614 53.2307 39 55.8969 39Z" fill="#D4D4D4"/>
<path d="M51.5332 101.381C51.9189 102.213 52.5344 102.918 53.3074 103.413C54.0803 103.907 54.9785 104.171 55.8961 104.172H92.103C94.7692 104.172 96.9306 102.011 96.9306 99.3446V49.1377C87.0896 75.3708 63.1279 93.7205 51.5332 101.381Z" fill="#C7C7C7"/>
<path d="M73.9999 99.3446C83.9982 99.3446 92.1034 91.2394 92.1034 81.2411C92.1034 71.2429 83.9982 63.1377 73.9999 63.1377C64.0017 63.1377 55.8965 71.2429 55.8965 81.2411C55.8965 91.2394 64.0017 99.3446 73.9999 99.3446Z" fill="#737373"/>
<path d="M74.0003 95.7243C66.0018 95.7243 59.5176 89.2401 59.5176 81.2415C59.5176 73.243 66.0018 66.7588 74.0003 66.7588C81.9989 66.7588 88.4831 73.243 88.4831 81.2415C88.4745 89.2366 81.9954 95.7157 74.0003 95.7243ZM74.0003 69.1726C67.3348 69.1726 61.9314 74.576 61.9314 81.2415C61.9314 87.9071 67.3348 93.3105 74.0003 93.3105C80.6659 93.3105 86.0693 87.9071 86.0693 81.2415C86.0621 74.579 80.6629 69.1798 74.0003 69.1726Z" fill="#DE4C3C"/>
<path d="M74.0002 58.3104C77.9995 58.3104 81.2415 55.0683 81.2415 51.069C81.2415 47.0697 77.9995 43.8276 74.0002 43.8276C70.0009 43.8276 66.7588 47.0697 66.7588 51.069C66.7588 55.0683 70.0009 58.3104 74.0002 58.3104Z" fill="#666666"/>
<path d="M73.9997 53.4829C75.3328 53.4829 76.4135 52.4022 76.4135 51.0691C76.4135 49.736 75.3328 48.6553 73.9997 48.6553C72.6666 48.6553 71.5859 49.736 71.5859 51.0691C71.5859 52.4022 72.6666 53.4829 73.9997 53.4829Z" fill="#737373"/>
<path d="M54.6895 42.6206H57.1032V45.0344H54.6895V42.6206ZM90.8964 42.6206H93.3101V45.0344H90.8964V42.6206ZM54.6895 98.1378H57.1032V100.552H54.6895V98.1378ZM90.8964 98.1378H93.3101V100.552H90.8964V98.1378Z" fill="#737373"/>
<path d="M74.0004 86.0692C76.6666 86.0692 78.828 83.9079 78.828 81.2416C78.828 78.5754 76.6666 76.4141 74.0004 76.4141C71.3342 76.4141 69.1729 78.5754 69.1729 81.2416C69.1729 83.9079 71.3342 86.0692 74.0004 86.0692Z" fill="#DEDEDE"/>
<path d="M55.8965 104.172H60.7241V109H55.8965V104.172ZM87.2758 104.172H92.1034V109H87.2758V104.172Z" fill="#737373"/>
<path d="M45.0345 82.4484H40.2069C39.8868 82.4484 39.5798 82.3212 39.3535 82.0949C39.1272 81.8686 39 81.5616 39 81.2415C39 80.9214 39.1272 80.6144 39.3535 80.3881C39.5798 80.1618 39.8868 80.0346 40.2069 80.0346H45.0345C45.3546 80.0346 45.6616 80.1618 45.8879 80.3881C46.1142 80.6144 46.2414 80.9214 46.2414 81.2415C46.2414 81.5616 46.1142 81.8686 45.8879 82.0949C45.6616 82.3212 45.3546 82.4484 45.0345 82.4484ZM45.0345 74.0001C44.7144 74.0001 44.4075 73.8729 44.1812 73.6465L40.5605 70.0258C40.3407 69.7982 40.219 69.4933 40.2218 69.1769C40.2245 68.8604 40.3515 68.5577 40.5752 68.334C40.799 68.1102 41.1017 67.9833 41.4181 67.9805C41.7346 67.9778 42.0394 68.0994 42.2671 68.3193L45.8878 71.9399C46.0565 72.1087 46.1714 72.3238 46.2179 72.5578C46.2645 72.7919 46.2406 73.0345 46.1493 73.255C46.0579 73.4755 45.9033 73.664 45.7049 73.7966C45.5064 73.9293 45.2731 74.0001 45.0345 74.0001ZM41.4138 94.5174C41.1751 94.5173 40.9418 94.4465 40.7434 94.3139C40.545 94.1813 40.3903 93.9928 40.299 93.7723C40.2077 93.5518 40.1838 93.3092 40.2303 93.0751C40.2769 92.841 40.3918 92.626 40.5605 92.4572L44.1812 88.8365C44.4114 88.6141 44.7206 88.4923 45.0406 88.4978C45.3606 88.5034 45.6654 88.6358 45.8878 88.8661C46.1051 89.0911 46.2266 89.3917 46.2266 89.7046C46.2266 90.0174 46.1051 90.318 45.8878 90.5431L42.2671 94.1637C42.0408 94.3901 41.7339 94.5173 41.4138 94.5174ZM107.793 82.4484H102.966C102.645 82.4484 102.338 82.3212 102.112 82.0949C101.886 81.8686 101.759 81.5616 101.759 81.2415C101.759 80.9214 101.886 80.6144 102.112 80.3881C102.338 80.1618 102.645 80.0346 102.966 80.0346H107.793C108.113 80.0346 108.42 80.1618 108.647 80.3881C108.873 80.6144 109 80.9214 109 81.2415C109 81.5616 108.873 81.8686 108.647 82.0949C108.42 82.3212 108.113 82.4484 107.793 82.4484ZM102.966 74.0001C102.727 74.0001 102.494 73.9293 102.295 73.7966C102.097 73.664 101.942 73.4755 101.851 73.255C101.759 73.0345 101.736 72.7919 101.782 72.5578C101.829 72.3238 101.944 72.1087 102.112 71.9399L105.733 68.3193C105.961 68.0994 106.265 67.9778 106.582 67.9805C106.898 67.9833 107.201 68.1102 107.425 68.334C107.649 68.5577 107.775 68.8604 107.778 69.1769C107.781 69.4933 107.659 69.7982 107.439 70.0258L103.819 73.6465C103.593 73.8729 103.286 74.0001 102.966 74.0001ZM106.586 94.5174C106.266 94.5173 105.959 94.3901 105.733 94.1637L102.112 90.5431C101.89 90.3128 101.768 90.0037 101.774 89.6837C101.779 89.3636 101.912 89.0589 102.142 88.8365C102.367 88.6191 102.667 88.4977 102.98 88.4977C103.293 88.4977 103.594 88.6191 103.819 88.8365L107.439 92.4572C107.608 92.626 107.723 92.841 107.77 93.0751C107.816 93.3092 107.792 93.5518 107.701 93.7723C107.61 93.9928 107.455 94.1813 107.257 94.3139C107.058 94.4465 106.825 94.5173 106.586 94.5174Z" fill="#87CED9"/>
</g>
<defs>
<clipPath id="clip0_3735_1900">
<rect width="70" height="70" fill="white" transform="translate(39 39)"/>
</clipPath>
</defs>
</svg>
