<svg width="68" height="69" viewBox="0 0 68 69" fill="none" xmlns="http://www.w3.org/2000/svg">
<rect x="0.5" y="1" width="67" height="67" rx="33.5" fill="#262626"/>
<rect x="0.5" y="1" width="67" height="67" rx="33.5" stroke="#404040"/>
<g clip-path="url(#clip0_3735_1119)">
<path d="M16.3125 37.125C16.3125 27.375 24.25 19.5 34 19.5C43.75 19.5 51.6875 27.375 51.6875 37.1875H16.3125V37.125Z" fill="#F7747E"/>
<path d="M51.625 37.9375H16.375C15.75 37.9375 15.25 37.4375 15.25 36.8125C15.25 36.1875 15.75 35.6875 16.375 35.6875H51.625C52.25 35.6875 52.75 36.1875 52.75 36.8125C52.75 37.4375 52.25 37.9375 51.625 37.9375ZM36.9375 17.4375C36.9375 19.0625 35.625 20.375 34 20.375C32.375 20.375 31.0625 19.0625 31.0625 17.4375C31.0625 15.8125 32.375 14.5 34 14.5C35.625 14.5 36.9375 15.8125 36.9375 17.4375ZM21.75 34.25V33.4375C21.75 33.125 21.75 32.875 21.8125 32.5625C21.875 31.9375 21.9375 31.375 22.0625 30.75C22.3125 29.5625 22.75 28.375 23.375 27.3125C23.6875 26.75 24.0625 26.25 24.4375 25.75C24.8125 25.25 25.25 24.8125 25.75 24.375C26.6875 23.5 27.8125 22.75 28.9375 22.1875C27.6875 22.5625 26.4375 23.125 25.3125 23.875C24.75 24.25 24.1875 24.625 23.6875 25.0625C23.1875 25.5 22.6875 26 22.25 26.5625C21.375 27.625 20.625 28.8125 20.0625 30.125C19.8125 30.75 19.5625 31.4375 19.375 32.125C19.3125 32.5 19.1875 32.8125 19.125 33.1875C19.0625 33.375 19.0625 33.5625 19.0625 33.75C19.0625 33.8125 19.0625 33.9375 19 34.0625V34.375L21.75 34.25Z" fill="#E95C60"/>
<path d="M28.938 42.0625C29.0005 40.9375 30.063 40.25 31.188 40.6875C33.188 41.4375 35.3755 41.4375 37.563 41.875C40.938 42.5 43.313 43.5 45.7505 46.375C47.688 48.6875 50.063 52 52.063 54.5C49.2505 54.4375 46.3755 54.625 43.5005 54.5C43.313 54.25 43.1255 53.5 42.938 53.25C42.2505 52.3125 41.563 51.8125 40.3755 51.8125C32.563 51.875 25.6255 47 21.0005 41.625C20.3755 40.9375 20.438 40.75 20.563 40.125C20.8755 39.0625 22.063 38.9375 22.8755 39.6875C26.7505 42.9375 31.5005 45.4375 36.5005 46.1875C37.063 46.25 37.2505 46.125 37.3755 45.9375C37.5005 45.5625 37.2505 45.125 36.813 45C34.563 44.625 32.188 44.25 30.188 43.5C29.3755 43.25 28.938 42.6875 28.938 42.0625Z" fill="#F7D8A4"/>
</g>
<defs>
<clipPath id="clip0_3735_1119">
<rect width="40" height="40" fill="white" transform="translate(14 14.5)"/>
</clipPath>
</defs>
</svg>
