<svg width="68" height="69" viewBox="0 0 68 69" fill="none" xmlns="http://www.w3.org/2000/svg">
<rect x="0.5" y="1" width="67" height="67" rx="33.5" fill="#262626"/>
<rect x="0.5" y="1" width="67" height="67" rx="33.5" stroke="#404040"/>
<g clip-path="url(#clip0_3735_1260)">
<path d="M42.33 49.4543V50.3395C42.33 51.5973 41.5936 52.7365 40.4489 53.2577C39.1006 53.8718 36.9904 54.5001 34.0004 54.5001C31.0105 54.5001 28.9003 53.8718 27.552 53.2577C26.4073 52.7364 25.6709 51.5973 25.6709 50.3395V49.4543H42.33Z" fill="#8DB9C2"/>
<path d="M51.6205 33.9966C51.6205 43.728 43.7316 51.6169 34.0002 51.6169C24.2688 51.6169 16.3799 43.728 16.3799 33.9966H51.6205Z" fill="#EFF3F5"/>
<path d="M46.655 33.9966C46.655 42.8851 40.0731 50.2351 31.5176 51.4419C32.3401 51.5582 33.1698 51.6167 34.0005 51.6169C43.7319 51.6169 51.6208 43.728 51.6208 33.9966H46.655Z" fill="#C9E2E7"/>
<path d="M34.0002 42.8068C43.7316 42.8068 51.6205 38.8624 51.6205 33.9967C51.6205 29.131 43.7316 25.1865 34.0002 25.1865C24.2688 25.1865 16.3799 29.131 16.3799 33.9967C16.3799 38.8624 24.2688 42.8068 34.0002 42.8068Z" fill="#8DB9C2"/>
<path d="M34.0007 40.4038C29.7228 40.4038 25.5732 39.5558 22.6159 38.0771C20.216 36.8771 18.7832 35.3517 18.7832 33.9965C18.7832 32.6412 20.216 31.1158 22.6159 29.9158C25.5733 28.4372 29.7229 27.5891 34.0007 27.5891C38.2785 27.5891 42.4282 28.4372 45.3855 29.9158C47.7854 31.1158 49.2182 32.6412 49.2182 33.9965C49.2182 35.3517 47.7854 36.8771 45.3855 38.0771C42.4282 39.5558 38.2786 40.4038 34.0007 40.4038Z" fill="#C9E2E7"/>
<path d="M20.0215 36.3197C20.6659 36.941 21.5439 37.5416 22.6152 38.0773C25.5727 39.556 29.7223 40.4041 34.0001 40.4041C38.2779 40.4041 42.4276 39.556 45.3849 38.0773C46.4563 37.5416 47.3342 36.941 47.9787 36.3197C47.7505 35.0707 46.4813 33.7224 44.4861 32.6392C41.7622 31.1605 37.9402 30.3125 34 30.3125C30.0598 30.3125 26.2379 31.1605 23.5139 32.6392C21.5188 33.7224 20.2497 35.0707 20.0215 36.3197Z" fill="#FDCB82"/>
<path d="M47.3103 34.9072C46.6132 35.4951 45.738 36.0606 44.7097 36.5747C41.257 38.3011 36.4123 39.2912 31.4179 39.2912C28.5604 39.2912 25.7524 38.9665 23.2256 38.3659C26.1294 39.6657 30.0086 40.4041 33.9996 40.4041C38.2775 40.4041 42.4271 39.5561 45.3845 38.0774C46.4559 37.5417 47.3338 36.9411 47.9782 36.3197C47.8936 35.8563 47.6654 35.3793 47.3103 34.9072Z" fill="#FCB143"/>
<path d="M32.2231 34.8301C32.0869 34.8302 31.9548 34.7836 31.8489 34.698C31.743 34.6124 31.6696 34.493 31.6411 34.3599C31.6126 34.2267 31.6307 34.0878 31.6923 33.9663C31.7539 33.8448 31.8554 33.7482 31.9797 33.6926C32.1327 33.623 32.5678 33.3742 32.7478 33.0593C32.8268 32.924 32.9561 32.8254 33.1075 32.7849C33.2589 32.7444 33.4201 32.7652 33.5562 32.843C33.6923 32.9207 33.7922 33.049 33.8342 33.2C33.8761 33.351 33.8568 33.5125 33.7804 33.6493C33.3751 34.3587 32.5564 34.7378 32.4645 34.7787C32.3885 34.8125 32.3063 34.8301 32.2231 34.8301Z" fill="#7FD061"/>
<path d="M32.4782 34.7975C32.2399 36.1479 30.6052 36.7997 28.3935 36.7997C26.1819 36.7997 23.9767 36.0773 24.469 34.7975C24.8695 33.7563 26.609 33.9547 28.7139 33.2757C31.1967 32.4748 32.7184 33.4359 32.4782 34.7975Z" fill="#FC8086"/>
<path d="M31.673 33.2544C31.6986 33.4132 31.6973 33.5813 31.6664 33.7563C31.4281 35.1067 29.7933 35.7586 27.5817 35.7586C26.3718 35.7586 25.165 35.542 24.3995 35.1366C24.3828 36.2042 26.3851 36.7999 28.3931 36.7999C30.6048 36.7999 32.2395 36.1479 32.4778 34.7976C32.5944 34.1367 32.295 33.5709 31.673 33.2544Z" fill="#FB636F"/>
<path d="M37.8441 34.9578C38.7288 34.9578 39.4459 34.4917 39.4459 33.9167C39.4459 33.3416 38.7288 32.8755 37.8441 32.8755C36.9594 32.8755 36.2422 33.3416 36.2422 33.9167C36.2422 34.4917 36.9594 34.9578 37.8441 34.9578Z" fill="#7FD061"/>
<path d="M42.89 36.4793C43.7747 36.4793 44.4918 36.0132 44.4918 35.4381C44.4918 34.8631 43.7747 34.397 42.89 34.397C42.0053 34.397 41.2881 34.8631 41.2881 35.4381C41.2881 36.0132 42.0053 36.4793 42.89 36.4793Z" fill="#7FD061"/>
<path d="M35.3616 38.4017C36.2463 38.4017 36.9635 37.9355 36.9635 37.3605C36.9635 36.7855 36.2463 36.3193 35.3616 36.3193C34.477 36.3193 33.7598 36.7855 33.7598 37.3605C33.7598 37.9355 34.477 38.4017 35.3616 38.4017Z" fill="#7FD061"/>
<path d="M34.3202 23.6987C34.2421 23.6987 34.1647 23.6833 34.0926 23.6534C34.0204 23.6236 33.9549 23.5798 33.8997 23.5245C33.8445 23.4693 33.8007 23.4038 33.7708 23.3316C33.7409 23.2595 33.7255 23.1821 33.7255 23.1041C33.7255 22.7775 33.6402 22.6441 33.499 22.4234C33.3242 22.1502 33.0848 21.7762 33.0848 21.1015C33.0848 20.427 33.3242 20.0529 33.499 19.7797C33.6403 19.5589 33.7255 19.4256 33.7255 19.099C33.7255 18.7725 33.6402 18.6392 33.499 18.4184C33.3242 18.1453 33.0848 17.7713 33.0848 17.0967C33.0848 16.4223 33.3242 16.0483 33.499 15.7752C33.6402 15.5544 33.7255 15.4212 33.7255 15.0946C33.7255 15.0165 33.7409 14.9392 33.7708 14.8671C33.8007 14.7949 33.8445 14.7294 33.8997 14.6741C33.9549 14.6189 34.0204 14.5751 34.0926 14.5452C34.1647 14.5154 34.2421 14.5 34.3202 14.5C34.3982 14.5 34.4756 14.5154 34.5477 14.5452C34.6199 14.5751 34.6854 14.6189 34.7407 14.6741C34.7959 14.7293 34.8397 14.7949 34.8696 14.867C34.8995 14.9392 34.9148 15.0165 34.9148 15.0946C34.9148 15.7691 34.6755 16.1431 34.5007 16.4162C34.3595 16.637 34.2741 16.7702 34.2741 17.0967C34.2741 17.4233 34.3595 17.5566 34.5007 17.7773C34.6755 18.0505 34.9148 18.4244 34.9148 19.099C34.9148 19.7736 34.6755 20.1476 34.5007 20.4208C34.3594 20.6416 34.2741 20.7748 34.2741 21.1015C34.2741 21.4282 34.3595 21.5615 34.5007 21.7823C34.6755 22.0555 34.9148 22.4295 34.9148 23.1041C34.9148 23.2618 34.8522 23.413 34.7406 23.5245C34.6291 23.636 34.4779 23.6987 34.3202 23.6987ZM38.7252 23.6987C38.6471 23.6987 38.5698 23.6833 38.4977 23.6534C38.4255 23.6236 38.36 23.5798 38.3048 23.5245C38.2495 23.4693 38.2057 23.4038 38.1759 23.3316C38.146 23.2595 38.1306 23.1821 38.1306 23.1041C38.1306 22.7775 38.0453 22.6441 37.9041 22.4234C37.7293 22.1502 37.4899 21.7762 37.4899 21.1015C37.4899 20.4268 37.7293 20.0529 37.9041 19.7797C38.0454 19.5589 38.1306 19.4256 38.1306 19.099C38.1306 18.7725 38.0453 18.6392 37.9041 18.4184C37.7293 18.1453 37.4898 17.7713 37.4898 17.0967C37.4898 17.0186 37.5052 16.9413 37.5351 16.8692C37.565 16.797 37.6088 16.7315 37.664 16.6762C37.7192 16.621 37.7847 16.5772 37.8569 16.5474C37.929 16.5175 38.0064 16.5021 38.0845 16.5021C38.1625 16.5021 38.2399 16.5175 38.312 16.5473C38.3842 16.5772 38.4497 16.621 38.505 16.6762C38.5602 16.7315 38.604 16.797 38.6339 16.8692C38.6638 16.9413 38.6791 17.0186 38.6791 17.0967C38.6791 17.4233 38.7645 17.5566 38.9057 17.7773C39.0805 18.0505 39.3198 18.4244 39.3198 19.099C39.3198 19.7736 39.0805 20.1476 38.9057 20.4208C38.7644 20.6416 38.6791 20.7748 38.6791 21.1015C38.6791 21.4281 38.7645 21.5614 38.9057 21.7823C39.0805 22.0555 39.3198 22.4295 39.3198 23.1041C39.3199 23.1821 39.3045 23.2595 39.2746 23.3316C39.2447 23.4038 39.2009 23.4693 39.1457 23.5245C39.0905 23.5798 39.0249 23.6236 38.9528 23.6534C38.8806 23.6833 38.8033 23.6987 38.7252 23.6987ZM29.835 23.6987C29.7569 23.6987 29.6796 23.6833 29.6074 23.6534C29.5353 23.6236 29.4697 23.5798 29.4145 23.5245C29.3593 23.4693 29.3155 23.4038 29.2856 23.3316C29.2558 23.2595 29.2404 23.1821 29.2404 23.1041C29.2404 22.7775 29.1551 22.6441 29.0138 22.4234C28.8391 22.1502 28.5997 21.7762 28.5997 21.1015C28.5997 20.4268 28.8391 20.0529 29.0138 19.7797C29.1552 19.5589 29.2404 19.4256 29.2404 19.099C29.2404 18.7725 29.1551 18.6392 29.0138 18.4184C28.8391 18.1453 28.5996 17.7713 28.5996 17.0967C28.5996 16.7683 28.8659 16.5021 29.1943 16.5021C29.5227 16.5021 29.7889 16.7683 29.7889 17.0967C29.7889 17.4233 29.8742 17.5566 30.0155 17.7773C30.1902 18.0505 30.4296 18.4244 30.4296 19.099C30.4296 19.7736 30.1902 20.1476 30.0155 20.4208C29.8741 20.6416 29.7889 20.7748 29.7889 21.1015C29.7889 21.4281 29.8742 21.5614 30.0155 21.7823C30.1902 22.0555 30.4296 22.4295 30.4296 23.1041C30.4296 23.1821 30.4142 23.2595 30.3844 23.3316C30.3545 23.4038 30.3107 23.4693 30.2555 23.5245C30.2003 23.5798 30.1347 23.6236 30.0626 23.6534C29.9904 23.6833 29.9131 23.6987 29.835 23.6987Z" fill="#FDCB82"/>
</g>
<defs>
<clipPath id="clip0_3735_1260">
<rect width="40" height="40" fill="white" transform="translate(14 14.5)"/>
</clipPath>
</defs>
</svg>
