<svg width="68" height="69" viewBox="0 0 68 69" fill="none" xmlns="http://www.w3.org/2000/svg">
<rect x="0.5" y="1" width="67" height="67" rx="33.5" fill="#262626"/>
<rect x="0.5" y="1" width="67" height="67" rx="33.5" stroke="#404040"/>
<g clip-path="url(#clip0_3735_1130)">
<path d="M29.0117 21.791L32.5751 26.4983L30.7118 27.8351L28.8486 26.7593L29.0117 21.791Z" fill="url(#paint0_linear_3735_1130)"/>
<path d="M29.7913 32.0857L29.6475 23.6096C29.6385 23.0798 29.4925 22.5614 29.2235 22.1048C28.9546 21.6482 28.5719 21.2691 28.1129 21.0044L27.5155 20.6599L25.2179 21.6427C23.0711 22.477 22.2815 23.756 22.2871 25.0405L23.2476 36.5089L29.7913 32.0857Z" fill="url(#paint1_linear_3735_1130)"/>
<path d="M27.9884 20.7024L27.8708 21.8779C27.8708 21.8779 28.0387 22.2137 27.9884 22.5663C27.938 22.919 27.2999 23.0701 26.5443 22.7846C25.7887 22.4991 25.2178 21.6428 25.2178 21.6428L25.3689 19.6446L26.2589 19.3591L27.9884 20.7024Z" fill="url(#paint2_linear_3735_1130)"/>
<path d="M27.9034 22.7388C27.9494 22.689 27.9788 22.6312 27.9882 22.5664C28.0385 22.2137 27.8706 21.8779 27.8706 21.8779L27.9882 20.7025L27.2629 20.1392L25.3008 20.5421C25.3008 20.5421 26.5747 22.5668 27.9034 22.7388Z" fill="url(#paint3_linear_3735_1130)"/>
<path d="M24.8174 21.8107L25.1569 21.1466L25.26 21.0872V21.2143C25.26 21.2143 25.317 21.9302 26.2517 22.1283C27.1863 22.3265 27.4102 22.1708 27.5802 22.0539C27.7502 21.937 27.8884 21.7032 27.8884 21.7032H28.0372L28.2285 22.6279C28.2285 22.6279 28.2498 23.0743 27.187 23.0956C26.1242 23.1168 25.166 22.4769 24.8174 21.8107Z" fill="url(#paint4_linear_3735_1130)"/>
<path d="M25.6883 33.3253C25.6727 33.3253 25.6578 33.3192 25.6467 33.3083C25.6355 33.2975 25.6291 33.2827 25.6287 33.2671L25.4006 24.2565C25.3966 24.0897 25.4491 23.9264 25.5497 23.7933L26.0899 23.0795C26.1558 22.9921 26.1915 22.8857 26.1917 22.7763V22.1851C26.1917 22.1693 26.198 22.1541 26.2092 22.1429C26.2204 22.1318 26.2355 22.1255 26.2514 22.1255C26.2672 22.1255 26.2823 22.1318 26.2935 22.1429C26.3047 22.1541 26.311 22.1693 26.311 22.1851V22.7763C26.311 22.9108 26.2663 23.0441 26.1849 23.1515L25.6447 23.8653C25.5604 23.9769 25.5164 24.1137 25.5198 24.2536L25.7479 33.2642C25.7481 33.272 25.7468 33.2798 25.7439 33.2871C25.7411 33.2944 25.7369 33.3011 25.7315 33.3067C25.7261 33.3124 25.7196 33.317 25.7125 33.3202C25.7053 33.3233 25.6976 33.3251 25.6898 33.3253H25.6883Z" fill="url(#paint5_linear_3735_1130)"/>
<path d="M48.9183 41.6713L48.9182 30.5911L19.0811 37.1864V48.2682L19.083 48.2681C19.0655 48.5099 19.2004 48.7431 19.4978 48.9148L27.2155 53.3854C27.8345 53.7428 28.9159 53.698 29.6307 53.2853L48.3274 42.4782C48.7269 42.2475 48.927 41.9508 48.918 41.6715L48.9183 41.6713Z" fill="url(#paint6_linear_3735_1130)"/>
<path d="M19.081 37.1863L16.7913 48.4642C16.7043 48.978 17.1001 49.4466 17.6211 49.4466H20.4193L19.081 37.1863Z" fill="url(#paint7_linear_3735_1130)"/>
<path d="M48.9184 30.6494L51.208 41.9275C51.2951 42.4412 50.8992 42.9098 50.3782 42.9098H47.5801L48.9184 30.6494Z" fill="url(#paint8_linear_3735_1130)"/>
<path d="M27.2154 42.2944L25.2139 52.2296L27.276 54.1082C27.8554 54.6361 28.7434 54.6299 29.3154 54.0939L31.0598 52.4591L29.6307 42.1943L27.2154 42.2944Z" fill="url(#paint9_linear_3735_1130)"/>
<path d="M40.7833 25.5223L48.5011 29.9929C49.1201 30.3503 49.0425 30.9746 48.3277 31.3873L29.6309 42.1945C28.9161 42.6072 27.8348 42.652 27.2157 42.2945L19.498 37.824C18.8789 37.4665 18.9566 36.8422 19.6714 36.4295L38.3681 25.6224C39.0829 25.2097 40.1643 25.1649 40.7833 25.5223Z" fill="url(#paint10_linear_3735_1130)"/>
<path d="M40.7714 33.2608L29.707 32.324V32.7289L29.709 32.7291C29.7098 32.8128 29.7691 32.9007 29.8885 32.9696L35.6328 36.2899C35.8524 36.4168 36.1846 36.4305 36.3748 36.3207L40.6433 33.8562C40.7313 33.8054 40.7715 33.7369 40.7697 33.6655L40.7715 33.6657V33.2608H40.7714Z" fill="url(#paint11_linear_3735_1130)"/>
<path d="M34.104 29.6696L29.8354 32.134C29.6452 32.2439 29.6691 32.4357 29.8887 32.5624L35.6329 35.8828C35.8525 36.0096 36.1848 36.0233 36.375 35.9135L40.6435 33.449C40.8337 33.3392 40.8099 33.1474 40.5903 33.0206L34.846 29.7003C34.6264 29.5736 34.2942 29.5598 34.104 29.6696Z" fill="url(#paint12_linear_3735_1130)"/>
<path d="M34.4257 29.8838C34.5264 29.8838 34.6294 29.9086 34.7011 29.95L40.4105 33.2501L36.2302 35.6636C36.2158 35.6719 36.1603 35.6991 36.0522 35.6991C35.9515 35.6991 35.8485 35.6743 35.7767 35.6329L30.0674 32.3327L34.2477 29.9192C34.262 29.911 34.3176 29.8838 34.4257 29.8838Z" fill="url(#paint13_linear_3735_1130)"/>
<path d="M34.795 30.6684C34.795 30.4115 34.6803 30.1623 34.4707 30.0138C34.319 29.9061 34.1396 29.8443 33.9537 29.8355C33.7679 29.8268 33.5835 29.8716 33.4223 29.9646L31.5426 31.0499C31.3794 31.1441 31.2439 31.2797 31.1497 31.4429C31.0554 31.6061 31.0058 31.7912 31.0059 31.9797C31.0059 32.0969 31.0367 32.2121 31.0953 32.3136C31.1539 32.4151 31.2382 32.4994 31.3397 32.558C31.5021 32.6518 31.6862 32.7011 31.8737 32.7011C32.0612 32.7011 32.2453 32.6518 32.4077 32.558L34.3521 31.4354C34.4868 31.3576 34.5986 31.2458 34.6763 31.1112C34.754 30.9766 34.7949 30.8239 34.795 30.6684Z" fill="url(#paint14_linear_3735_1130)"/>
<path d="M33.5087 29.9363C33.5087 29.9363 33.6551 30.0508 33.7186 30.2233C33.7822 30.3957 33.7186 30.7339 33.7186 30.7339C33.7186 30.7339 33.4962 30.4328 33.4581 30.2659C33.42 30.0992 33.5087 29.9363 33.5087 29.9363ZM32.9543 30.2539C32.9543 30.2539 33.1007 30.3684 33.1642 30.5409C33.2277 30.7134 33.1642 31.0516 33.1642 31.0516C33.1642 31.0516 32.9418 30.7504 32.9037 30.5836C32.8655 30.4168 32.9543 30.2539 32.9543 30.2539ZM32.3887 30.5749C32.3887 30.5749 32.5351 30.6894 32.5986 30.8618C32.6622 31.0343 32.5986 31.3726 32.5986 31.3726C32.5986 31.3726 32.3762 31.0714 32.3381 30.9046C32.2999 30.7378 32.3887 30.5749 32.3887 30.5749ZM31.7818 30.9244C31.7818 30.9244 31.9282 31.0389 31.9917 31.2113C32.0553 31.3838 31.9917 31.7221 31.9917 31.7221C31.9917 31.7221 31.7693 31.4209 31.7312 31.2541C31.6931 31.0873 31.7818 30.9244 31.7818 30.9244Z" fill="#FCF3B3"/>
<path d="M36.251 31.5244C36.251 31.2675 36.1363 31.0182 35.9268 30.8698C35.7751 30.7621 35.5956 30.7002 35.4098 30.6915C35.2239 30.6828 35.0395 30.7276 34.8784 30.8206L32.9987 31.9058C32.8355 32.0001 32.7 32.1356 32.6057 32.2988C32.5115 32.462 32.4619 32.6471 32.4619 32.8356C32.4619 32.9528 32.4928 33.068 32.5514 33.1695C32.61 33.271 32.6943 33.3553 32.7958 33.4139C32.9581 33.5076 33.1423 33.557 33.3298 33.557C33.5172 33.557 33.7014 33.5076 33.8637 33.4139L35.8082 32.2913C35.9428 32.2135 36.0546 32.1018 36.1324 31.9671C36.2101 31.8325 36.251 31.6798 36.251 31.5244Z" fill="url(#paint15_linear_3735_1130)"/>
<path d="M34.9657 30.792C34.9657 30.792 35.1121 30.9065 35.1757 31.079C35.2392 31.2514 35.1757 31.5896 35.1757 31.5896C35.1757 31.5896 34.9532 31.2885 34.9151 31.1216C34.877 30.9549 34.9657 30.792 34.9657 30.792ZM34.4113 31.1097C34.4113 31.1097 34.5576 31.2242 34.6212 31.3967C34.6848 31.5692 34.6212 31.9074 34.6212 31.9074C34.6212 31.9074 34.3988 31.6063 34.3607 31.4394C34.3226 31.2725 34.4113 31.1097 34.4113 31.1097ZM33.8457 31.4306C33.8457 31.4306 33.9921 31.5451 34.0557 31.7176C34.1192 31.89 34.0557 32.2283 34.0557 32.2283C34.0557 32.2283 33.8332 31.9271 33.7951 31.7603C33.757 31.5935 33.8457 31.4306 33.8457 31.4306ZM33.2388 31.7801C33.2388 31.7801 33.3852 31.8947 33.4488 32.0671C33.5123 32.2396 33.4488 32.5779 33.4488 32.5779C33.4488 32.5779 33.2263 32.2767 33.1882 32.1099C33.1501 31.943 33.2388 31.7801 33.2388 31.7801Z" fill="#FCF3B3"/>
<path d="M37.708 32.3803C37.708 32.1234 37.5934 31.8742 37.3838 31.7257C37.2321 31.618 37.0527 31.5562 36.8668 31.5475C36.681 31.5387 36.4965 31.5835 36.3354 31.6765L34.4557 32.7618C34.2925 32.856 34.157 32.9915 34.0628 33.1547C33.9686 33.3179 33.9189 33.5031 33.9189 33.6915C33.9189 33.8087 33.9498 33.9239 34.0084 34.0254C34.067 34.127 34.1513 34.2113 34.2528 34.2699C34.4152 34.3636 34.5993 34.4129 34.7868 34.4129C34.9742 34.4129 35.1584 34.3636 35.3207 34.2699L37.2652 33.1472C37.3998 33.0695 37.5116 32.9577 37.5893 32.8231C37.6671 32.6885 37.708 32.5358 37.708 32.3803Z" fill="url(#paint16_linear_3735_1130)"/>
<path d="M36.4228 31.6482C36.4228 31.6482 36.5692 31.7627 36.6328 31.9352C36.6963 32.1076 36.6328 32.4459 36.6328 32.4459C36.6328 32.4459 36.4104 32.1447 36.3722 31.9779C36.334 31.811 36.4228 31.6482 36.4228 31.6482ZM35.8683 31.9658C35.8683 31.9658 36.0147 32.0804 36.0783 32.2528C36.1418 32.4253 36.0783 32.7636 36.0783 32.7636C36.0783 32.7636 35.8558 32.4624 35.8177 32.2956C35.7796 32.1287 35.8683 31.9658 35.8683 31.9658ZM35.3027 32.2867C35.3027 32.2867 35.4492 32.4012 35.5127 32.5737C35.5762 32.7462 35.5127 33.0844 35.5127 33.0844C35.5127 33.0844 35.2903 32.7833 35.2522 32.6164C35.214 32.4496 35.3027 32.2867 35.3027 32.2867ZM34.6958 32.6363C34.6958 32.6363 34.8423 32.7508 34.9058 32.9233C34.9693 33.0957 34.9058 33.434 34.9058 33.434C34.9058 33.434 34.6834 33.1328 34.6453 32.966C34.6071 32.7991 34.6958 32.6363 34.6958 32.6363Z" fill="#FCF3B3"/>
<path d="M39.1651 33.2363C39.1651 32.9794 39.0504 32.7301 38.8408 32.5817C38.6891 32.474 38.5097 32.4121 38.3239 32.4034C38.138 32.3947 37.9536 32.4395 37.7924 32.5325L35.9128 33.6178C35.7496 33.712 35.614 33.8475 35.5198 34.0107C35.4256 34.1739 35.376 34.359 35.376 34.5475C35.376 34.6647 35.4068 34.7799 35.4654 34.8814C35.524 34.9829 35.6083 35.0672 35.7099 35.1258C35.8722 35.2196 36.0564 35.2689 36.2438 35.2689C36.4313 35.2689 36.6154 35.2196 36.7778 35.1258L38.7223 34.0032C38.8569 33.9254 38.9687 33.8137 39.0464 33.679C39.1241 33.5444 39.1651 33.3917 39.1651 33.2363Z" fill="url(#paint17_linear_3735_1130)"/>
<path d="M37.8788 32.5039C37.8788 32.5039 38.0252 32.6184 38.0888 32.7909C38.1523 32.9634 38.0888 33.3016 38.0888 33.3016C38.0888 33.3016 37.8664 33.0005 37.8282 32.8336C37.79 32.6667 37.8788 32.5039 37.8788 32.5039ZM37.3244 32.8216C37.3244 32.8216 37.4708 32.9361 37.5344 33.1085C37.5979 33.281 37.5344 33.6192 37.5344 33.6192C37.5344 33.6192 37.3119 33.318 37.2738 33.1512C37.2356 32.9845 37.3244 32.8216 37.3244 32.8216ZM36.7588 33.1425C36.7588 33.1425 36.9052 33.257 36.9687 33.4295C37.0322 33.6019 36.9687 33.9402 36.9687 33.9402C36.9687 33.9402 36.7463 33.639 36.7082 33.4722C36.67 33.3053 36.7588 33.1425 36.7588 33.1425ZM36.1519 33.492C36.1519 33.492 36.2984 33.6065 36.3619 33.779C36.4254 33.9514 36.3619 34.2896 36.3619 34.2896C36.3619 34.2896 36.1395 33.9885 36.1013 33.8216C36.0631 33.6549 36.1519 33.492 36.1519 33.492Z" fill="#FCF3B3"/>
<path d="M22.2353 34.265C22.2071 34.265 22.1795 34.2575 22.1551 34.2434L21.2196 33.7032C21.1624 33.6707 21.1148 33.6234 21.0819 33.5664C21.049 33.5093 21.0318 33.4445 21.0322 33.3787C21.0322 33.2432 21.1023 33.1219 21.2197 33.0541L22.6136 32.2493C22.7188 32.1888 22.8379 32.157 22.9592 32.157C23.0805 32.157 23.1997 32.1888 23.3048 32.2493L24.2963 32.8217C24.3332 32.843 24.3601 32.8781 24.3712 32.9192C24.3822 32.9604 24.3764 33.0043 24.3551 33.0412C24.3338 33.0781 24.2987 33.105 24.2575 33.116C24.2164 33.127 24.1725 33.1213 24.1356 33.0999L23.1441 32.5275C23.0878 32.4951 23.0241 32.4781 22.9592 32.4781C22.8943 32.4781 22.8306 32.4951 22.7744 32.5275L21.3803 33.3324C21.357 33.3458 21.3535 33.3672 21.3535 33.3787C21.3535 33.3902 21.357 33.4115 21.3803 33.425L22.3158 33.965C22.3466 33.9827 22.3706 34.01 22.3842 34.0427C22.3978 34.0755 22.4002 34.1118 22.391 34.146C22.3818 34.1802 22.3615 34.2104 22.3334 34.232C22.3052 34.2535 22.2707 34.2651 22.2353 34.265Z" fill="#E9E5F6"/>
<path d="M20.79 34.4683V35.6123C20.79 35.8964 20.8648 36.1756 21.0068 36.4218C21.1489 36.6679 21.3532 36.8723 21.5992 37.0145L26.6513 39.9345C27.0109 40.1423 27.4189 40.2518 27.8343 40.2519C28.2496 40.252 28.6577 40.1427 29.0174 39.935L32.306 38.0363C32.5522 37.8942 32.7567 37.6897 32.8989 37.4435C33.041 37.1973 33.1158 36.918 33.1158 36.6338V35.5284L20.79 34.4683Z" fill="url(#paint18_linear_3735_1130)"/>
<path d="M25.6881 31.5196L20.9331 34.2649C20.7212 34.3872 20.7477 34.6009 20.9924 34.7421L27.3912 38.4408C27.6358 38.582 28.0059 38.5973 28.2178 38.4751L32.9728 35.7298C33.1846 35.6074 33.1581 35.3938 32.9134 35.2525L26.5146 31.5539C26.27 31.4126 25.9 31.3972 25.6881 31.5196Z" fill="url(#paint19_linear_3735_1130)"/>
<path d="M26.0474 31.7583C26.1596 31.7583 26.2743 31.7859 26.3543 31.832L32.7142 35.5082L28.0575 38.1967C28.0414 38.206 27.9797 38.2363 27.8591 38.2363C27.747 38.2363 27.6322 38.2087 27.5523 38.1625L21.1924 34.4863L25.849 31.7978C25.8651 31.7886 25.9269 31.7583 26.0474 31.7583Z" fill="url(#paint20_linear_3735_1130)"/>
<path d="M26.0473 32.2493C25.9268 32.2493 25.865 32.2795 25.849 32.2888L21.6172 34.732L27.5522 38.1626C27.6321 38.2087 27.7468 38.2363 27.859 38.2363C27.9795 38.2363 28.0413 38.2061 28.0573 38.1968L32.2891 35.7536L26.3541 32.323C26.2741 32.2769 26.1594 32.2493 26.0473 32.2493Z" fill="url(#paint21_linear_3735_1130)"/>
<path d="M25.9628 33.1042L26.475 32.975C26.4988 32.969 26.5238 32.9701 26.547 32.978C26.5702 32.986 26.5905 33.0005 26.6056 33.0198L26.7203 33.1665C26.7327 33.1823 26.7411 33.2009 26.7449 33.2207C26.7487 33.2404 26.7477 33.2608 26.742 33.2801C26.7363 33.2994 26.7261 33.3171 26.7123 33.3316C26.6984 33.3462 26.6812 33.3573 26.6622 33.3639L26.1198 33.5531C26.0563 33.5753 25.9865 33.5438 25.961 33.4815L25.8765 33.2748C25.8697 33.258 25.8666 33.24 25.8673 33.2219C25.868 33.2038 25.8727 33.186 25.8808 33.1699C25.889 33.1537 25.9006 33.1395 25.9147 33.1281C25.9288 33.1168 25.9452 33.1087 25.9628 33.1042Z" fill="#CC8241"/>
<path d="M23.6264 35.3625C23.7297 35.3029 23.8858 35.2964 23.9753 35.3481C24.0647 35.3997 24.0535 35.4899 23.9502 35.5495C23.8469 35.6091 23.6908 35.6156 23.6014 35.5639C23.512 35.5124 23.5232 35.4222 23.6264 35.3625ZM25.671 34.1792C25.7742 34.1196 25.9305 34.1131 26.0199 34.1648C26.1093 34.2164 26.0981 34.3066 25.9949 34.3662C25.8916 34.4258 25.7354 34.4323 25.646 34.3806C25.5565 34.329 25.5677 34.2388 25.671 34.1792ZM28.866 35.446C28.9693 35.3864 29.1255 35.3799 29.2149 35.4316C29.3043 35.4833 29.2931 35.5734 29.1899 35.633C29.0866 35.6926 28.9304 35.6991 28.841 35.6474C28.7515 35.5958 28.7627 35.5056 28.866 35.446ZM27.0988 35.6614C27.202 35.6018 27.3582 35.5953 27.4477 35.647C27.5371 35.6987 27.5258 35.7888 27.4226 35.8484C27.3194 35.908 27.1632 35.9145 27.0738 35.8628C26.9844 35.8112 26.9956 35.721 27.0988 35.6614Z" fill="#FF4757"/>
<path d="M25.7452 36.5926C25.8017 36.5599 25.8871 36.5564 25.9361 36.5847C25.985 36.6129 25.9789 36.6622 25.9224 36.6948C25.8659 36.7275 25.7804 36.731 25.7315 36.7028C25.6825 36.6745 25.6886 36.6252 25.7452 36.5926ZM27.2371 34.861C27.2936 34.8284 27.3791 34.8249 27.428 34.8531C27.4769 34.8814 27.4708 34.9307 27.4143 34.9633C27.3578 34.9959 27.2723 34.9995 27.2234 34.9712C27.1745 34.9431 27.1806 34.8937 27.2371 34.861ZM25.1256 33.886C25.182 33.8534 25.2675 33.8498 25.3165 33.8781C25.3654 33.9063 25.3593 33.9556 25.3027 33.9883C25.2462 34.0209 25.1608 34.0244 25.1118 33.9962C25.063 33.9679 25.0691 33.9186 25.1256 33.886ZM29.703 36.0662C29.7595 36.0336 29.8449 36.0301 29.8939 36.0583C29.9428 36.0865 29.9367 36.1359 29.8802 36.1685C29.8237 36.2011 29.7382 36.2046 29.6893 36.1764C29.6403 36.1482 29.6465 36.0988 29.703 36.0662ZM26.9871 33.3326C27.0435 33.3 27.129 33.2965 27.178 33.3247C27.2269 33.353 27.2208 33.4023 27.1642 33.4349C27.1078 33.4676 27.0223 33.4711 26.9733 33.4428C26.9245 33.4146 26.9306 33.3653 26.9871 33.3326ZM27.3725 36.7087C27.4289 36.676 27.5144 36.6725 27.5634 36.7007C27.6123 36.729 27.6062 36.7783 27.5497 36.8109C27.4932 36.8436 27.4077 36.8471 27.3588 36.8188C27.3098 36.7906 27.316 36.7413 27.3725 36.7087ZM31.2437 35.561C31.3002 35.5283 31.3857 35.5248 31.4346 35.553C31.4835 35.5813 31.4774 35.6306 31.4209 35.6632C31.3644 35.6959 31.2789 35.6994 31.23 35.6712C31.1811 35.6429 31.1872 35.5936 31.2437 35.561ZM24.9163 35.1915C24.9728 35.1588 25.0583 35.1553 25.1072 35.1836C25.1562 35.2118 25.15 35.2611 25.0935 35.2937C25.037 35.3264 24.9515 35.3299 24.9026 35.3017C24.8537 35.2734 24.8598 35.2241 24.9163 35.1915ZM23.4071 34.9392C23.4635 34.9066 23.549 34.9031 23.598 34.9313C23.6469 34.9596 23.6408 35.0089 23.5842 35.0415C23.5278 35.0741 23.4423 35.0777 23.3933 35.0494C23.3445 35.0212 23.3506 34.9719 23.4071 34.9392Z" fill="#F7E041"/>
<path d="M28.568 37.03C28.6713 36.9704 28.8274 36.9639 28.9168 37.0156C29.0062 37.0672 28.995 37.1574 28.8918 37.217C28.7886 37.2766 28.6324 37.2831 28.5429 37.2314C28.4535 37.1798 28.4647 37.0896 28.568 37.03ZM23.6264 34.0537C23.7297 33.9941 23.8858 33.9876 23.9753 34.0393C24.0647 34.0909 24.0535 34.1811 23.9502 34.2407C23.8469 34.3003 23.6908 34.3068 23.6014 34.2551C23.512 34.2035 23.5232 34.1133 23.6264 34.0537ZM27.7322 33.683C27.8355 33.6234 27.9917 33.6168 28.0811 33.6685C28.1705 33.7201 28.1593 33.8103 28.056 33.8699C27.9528 33.9296 27.7966 33.9361 27.7072 33.8844C27.6177 33.8328 27.6289 33.7426 27.7322 33.683ZM25.671 32.5515C25.7742 32.4919 25.9305 32.4854 26.0199 32.5371C26.1093 32.5887 26.0981 32.6789 25.9949 32.7385C25.8916 32.7981 25.7354 32.8046 25.646 32.7529C25.5565 32.7013 25.5677 32.6111 25.671 32.5515Z" fill="#FF4757"/>
<path d="M24.03 34.4568L24.4549 34.3009C24.4723 34.2945 24.4911 34.2929 24.5093 34.2962C24.5276 34.2995 24.5446 34.3077 24.5586 34.3198L24.8124 34.5398C24.8663 34.5865 24.858 34.6724 24.7963 34.7081L24.3089 34.9894C24.2587 35.0184 24.1944 35.0005 24.1663 34.9499L23.975 34.6045C23.9677 34.5914 23.9634 34.5769 23.9623 34.5619C23.9611 34.547 23.9633 34.532 23.9685 34.518C23.9737 34.504 23.9819 34.4912 23.9925 34.4807C24.0031 34.4701 24.0159 34.4619 24.03 34.4568ZM23.0522 34.8341L22.8006 34.5568C22.79 34.5451 22.7753 34.5378 22.7595 34.5366C22.7438 34.5353 22.7281 34.5401 22.7158 34.55L22.5126 34.7121C22.5044 34.7186 22.498 34.7272 22.494 34.7369C22.49 34.7466 22.4885 34.7572 22.4896 34.7676C22.4908 34.7781 22.4946 34.788 22.5007 34.7966C22.5067 34.8052 22.5149 34.8121 22.5243 34.8167L22.8692 34.984C22.8776 34.9881 22.8868 34.9902 22.8962 34.9902C22.9055 34.9903 22.9147 34.9882 22.9231 34.9842L23.033 34.9321C23.0418 34.9279 23.0494 34.9217 23.0553 34.914C23.0613 34.9064 23.0653 34.8974 23.0672 34.8879C23.0691 34.8784 23.0687 34.8686 23.0661 34.8592C23.0635 34.8499 23.0587 34.8413 23.0522 34.8341ZM28.3468 34.2727H28.923C28.9665 34.2727 29.0045 34.302 29.0157 34.3441L29.0925 34.6341C29.0962 34.6483 29.0967 34.6632 29.0938 34.6776C29.0909 34.692 29.0847 34.7055 29.0758 34.7172C29.0668 34.7288 29.0553 34.7382 29.0421 34.7447C29.0289 34.7512 29.0144 34.7546 28.9998 34.7546H28.526C28.4927 34.7546 28.4618 34.7373 28.4444 34.7091L28.2652 34.4191C28.2562 34.4045 28.2513 34.3879 28.2509 34.3708C28.2505 34.3537 28.2547 34.3368 28.263 34.3219C28.2713 34.307 28.2835 34.2945 28.2982 34.2859C28.3129 34.2772 28.3297 34.2727 28.3468 34.2727ZM25.8336 35.2441L25.8623 34.9531C25.8647 34.9286 25.8748 34.9055 25.8912 34.8871C25.9076 34.8687 25.9294 34.856 25.9535 34.8508L26.2961 34.7768C26.3235 34.7709 26.3521 34.7751 26.3767 34.7886C26.4013 34.8021 26.4202 34.824 26.4299 34.8504L26.5641 35.2154C26.5706 35.233 26.5727 35.2518 26.5703 35.2704C26.5679 35.289 26.5611 35.3067 26.5504 35.3221C26.5397 35.3375 26.5254 35.35 26.5088 35.3587C26.4922 35.3673 26.4737 35.3718 26.455 35.3718H25.9494C25.9332 35.3718 25.9171 35.3684 25.9022 35.3619C25.8874 35.3553 25.8741 35.3457 25.8632 35.3336C25.8523 35.3216 25.844 35.3074 25.8389 35.292C25.8338 35.2766 25.832 35.2602 25.8336 35.2441ZM26.2867 36.3531L26.412 36.1741C26.4288 36.1501 26.4532 36.1323 26.4812 36.1235C26.5092 36.1147 26.5393 36.1155 26.5669 36.1256L26.9879 36.2808C27.0066 36.2877 27.0235 36.2987 27.0374 36.313C27.0513 36.3274 27.0618 36.3446 27.0681 36.3635C27.0744 36.3824 27.0763 36.4025 27.0738 36.4223C27.0713 36.4421 27.0644 36.4611 27.0536 36.4778L26.8294 36.8238C26.8186 36.8405 26.8043 36.8545 26.7874 36.8649C26.7705 36.8752 26.7515 36.8817 26.7318 36.8838C26.7121 36.8858 26.6922 36.8835 26.6735 36.8769C26.6548 36.8703 26.6378 36.8596 26.6238 36.8456L26.3016 36.5234C26.2795 36.5013 26.2659 36.4721 26.2631 36.441C26.2604 36.4098 26.2687 36.3787 26.2867 36.3531ZM30.1142 35.0112L29.5608 35.1866C29.5476 35.1908 29.5355 35.1979 29.5254 35.2073C29.5153 35.2168 29.5075 35.2284 29.5025 35.2414C29.4975 35.2543 29.4954 35.2681 29.4965 35.2819C29.4976 35.2957 29.5018 35.3091 29.5087 35.3211L29.5758 35.437C29.5946 35.4695 29.6311 35.4874 29.6682 35.4824L30.3598 35.3888C30.4365 35.3784 30.4673 35.2842 30.4116 35.2305L30.2063 35.0328C30.1943 35.0212 30.1794 35.0131 30.1632 35.0093C30.147 35.0055 30.1301 35.0062 30.1142 35.0112ZM27.7212 35.4086L27.7358 35.2395C27.7386 35.207 27.7535 35.1767 27.7776 35.1546C27.8017 35.1325 27.8331 35.1203 27.8658 35.1202H28.4129C28.4358 35.1202 28.4583 35.1263 28.4782 35.1377C28.498 35.1492 28.5145 35.1656 28.5259 35.1855C28.5374 35.2053 28.5434 35.2278 28.5434 35.2507C28.5434 35.2736 28.5373 35.2961 28.5259 35.3159L28.3925 35.5468C28.3795 35.5694 28.36 35.5876 28.3365 35.5989C28.3131 35.6103 28.2867 35.6144 28.2609 35.6107L27.8325 35.5488C27.7996 35.544 27.7697 35.5268 27.749 35.5008C27.7283 35.4747 27.7184 35.4417 27.7212 35.4086ZM26.8193 34.134L27.0905 33.9503C27.1004 33.9435 27.1118 33.9392 27.1237 33.9377C27.1356 33.9362 27.1477 33.9375 27.1591 33.9416L27.4093 34.0307C27.4222 34.0353 27.4337 34.0433 27.4425 34.0538C27.4512 34.0643 27.457 34.077 27.4592 34.0906C27.4614 34.1041 27.4599 34.118 27.4549 34.1308C27.4499 34.1435 27.4416 34.1547 27.4307 34.1631L27.2027 34.341C27.1932 34.3484 27.1821 34.3535 27.1703 34.3558C27.1585 34.3581 27.1463 34.3576 27.1347 34.3543L26.8412 34.271C26.7787 34.2533 26.7655 34.1704 26.8193 34.134ZM24.4907 35.932L24.679 35.737C24.6945 35.721 24.7148 35.7105 24.7369 35.7071C24.7589 35.7038 24.7815 35.7078 24.801 35.7185L25.2228 35.9503C25.2596 35.9705 25.2801 36.0112 25.2746 36.0529L25.2394 36.3151C25.2372 36.3313 25.2312 36.3467 25.2218 36.36C25.2124 36.3734 25.1999 36.3843 25.1855 36.3918C25.171 36.3993 25.1549 36.4032 25.1386 36.4032C25.1223 36.4032 25.1062 36.3993 25.0918 36.3918L24.5169 36.0927C24.5029 36.0854 24.4908 36.0749 24.4815 36.0621C24.4722 36.0493 24.4661 36.0345 24.4635 36.0189C24.461 36.0033 24.4621 35.9873 24.4668 35.9722C24.4716 35.9571 24.4797 35.9434 24.4907 35.932ZM24.5926 33.7755L25.0604 33.7027C25.0721 33.7008 25.0832 33.6964 25.0929 33.6896C25.1026 33.6827 25.1106 33.6738 25.1163 33.6634C25.122 33.653 25.1252 33.6414 25.1257 33.6296C25.1262 33.6178 25.124 33.606 25.1192 33.5951L25.0118 33.3518C25.0046 33.3354 24.992 33.3221 24.9761 33.314C24.9602 33.306 24.942 33.3036 24.9245 33.3075L24.4196 33.4179C24.4072 33.4206 24.3956 33.4264 24.3859 33.4346C24.3762 33.4429 24.3687 33.4535 24.3641 33.4653C24.3595 33.4772 24.3579 33.49 24.3594 33.5027C24.361 33.5153 24.3656 33.5274 24.3729 33.5378L24.5176 33.7435C24.5258 33.7553 24.5373 33.7646 24.5505 33.7702C24.5638 33.7759 24.5784 33.7777 24.5926 33.7755ZM29.0989 36.0296L28.644 36.2283C28.6241 36.237 28.6075 36.2519 28.5967 36.2707C28.5859 36.2896 28.5814 36.3114 28.584 36.3329L28.6114 36.5641C28.6131 36.5782 28.6178 36.5918 28.6251 36.6041C28.6324 36.6163 28.6422 36.6268 28.6538 36.635C28.6655 36.6432 28.6788 36.6488 28.6927 36.6515C28.7067 36.6542 28.7211 36.6539 28.735 36.6507L29.2931 36.5199C29.3075 36.5165 29.3211 36.51 29.3327 36.5008C29.3443 36.4916 29.3538 36.48 29.3605 36.4667C29.3671 36.4535 29.3708 36.4389 29.3712 36.4241C29.3715 36.4093 29.3687 36.3945 29.3627 36.3809L29.2321 36.0819C29.2268 36.0697 29.2192 36.0587 29.2096 36.0495C29.2 36.0402 29.1887 36.033 29.1763 36.0282C29.164 36.0233 29.1508 36.0209 29.1375 36.0212C29.1242 36.0215 29.1111 36.0243 29.0989 36.0296ZM28.1148 37.1499L27.7844 37.0869C27.7716 37.0845 27.7584 37.0846 27.7456 37.0873C27.7328 37.09 27.7207 37.0953 27.71 37.1027C27.6993 37.1102 27.6902 37.1197 27.6832 37.1308C27.6762 37.1418 27.6715 37.1541 27.6693 37.167L27.5951 37.6102C27.5925 37.6255 27.5936 37.6413 27.5983 37.6561C27.603 37.6709 27.6112 37.6844 27.6222 37.6955C27.6331 37.7065 27.6465 37.7148 27.6613 37.7196C27.6761 37.7244 27.6918 37.7257 27.7072 37.7232L28.0024 37.6762C28.0202 37.6733 28.0369 37.6657 28.0506 37.654C28.0643 37.6423 28.0745 37.6271 28.0802 37.61L28.1896 37.2768C28.194 37.2635 28.1955 37.2495 28.194 37.2357C28.1925 37.2218 28.188 37.2084 28.1809 37.1964C28.1739 37.1844 28.1643 37.174 28.1529 37.166C28.1415 37.158 28.1285 37.1525 28.1148 37.1499ZM30.927 35.8547L30.4831 35.8917C30.472 35.8926 30.4614 35.8961 30.4519 35.9018C30.4424 35.9075 30.4344 35.9153 30.4284 35.9246C30.4224 35.9339 30.4187 35.9445 30.4174 35.9555C30.4162 35.9665 30.4175 35.9776 30.4212 35.988L30.5175 36.2541C30.5234 36.2705 30.5351 36.2842 30.5504 36.2927C30.5656 36.3011 30.5834 36.3037 30.6005 36.3001L30.8982 36.2356C30.9118 36.2327 30.9243 36.2258 30.9341 36.216C30.9439 36.2061 30.9506 36.1936 30.9535 36.1799L31.0034 35.9413C31.0057 35.9303 31.0054 35.9189 31.0026 35.9081C30.9997 35.8972 30.9944 35.8872 30.9869 35.8788C30.9795 35.8703 30.9702 35.8638 30.9598 35.8596C30.9494 35.8554 30.9382 35.8537 30.927 35.8547Z" fill="#CC8241"/>
<path d="M30.2472 38.8095C30.1259 38.8096 30.0067 38.7777 29.9016 38.7172L29.3713 38.411C29.3531 38.4005 29.337 38.3864 29.3242 38.3697C29.3114 38.353 29.3019 38.3338 29.2965 38.3135C29.291 38.2931 29.2896 38.2718 29.2924 38.2509C29.2951 38.23 29.302 38.2098 29.3126 38.1915C29.3231 38.1733 29.3372 38.1573 29.3539 38.1444C29.3706 38.1316 29.3897 38.1222 29.4101 38.1167C29.4305 38.1112 29.4518 38.1098 29.4727 38.1126C29.4936 38.1154 29.5138 38.1222 29.532 38.1328L30.0623 38.4389C30.1762 38.5047 30.318 38.5048 30.432 38.4389L31.8262 37.634C31.8495 37.6206 31.853 37.5993 31.853 37.5877C31.853 37.5762 31.8495 37.5549 31.8262 37.5415L31.3518 37.2676C31.3149 37.2463 31.288 37.2112 31.277 37.17C31.2659 37.1289 31.2717 37.085 31.293 37.0481C31.3143 37.0112 31.3494 36.9843 31.3906 36.9732C31.4318 36.9622 31.4756 36.968 31.5125 36.9893L31.9869 37.2632C32.0441 37.2958 32.0916 37.343 32.1245 37.4001C32.1575 37.4571 32.1746 37.5219 32.1742 37.5877C32.1746 37.6536 32.1575 37.7184 32.1246 37.7754C32.0916 37.8325 32.0441 37.8797 31.9869 37.9123L30.5927 38.7172C30.4877 38.7777 30.3685 38.8096 30.2472 38.8095Z" fill="#F2EDFF"/>
<path d="M24.8056 19.6099L24.6143 18.7333L26.636 18.7031L25.7628 20.0465L24.8056 19.6099Z" fill="url(#paint22_linear_3735_1130)"/>
<path d="M28.7349 18.2834C28.7349 18.2834 28.802 18.8879 28.8188 19.3749C28.8356 19.8619 28.8188 20.8525 28.7768 20.9701C28.7349 21.0877 28.5501 21.5242 28.2814 21.5998C28.0127 21.6754 27.1816 21.5998 26.745 21.4403C26.3084 21.2808 25.5779 20.5336 25.5779 20.5336C25.5779 20.5336 25.133 20.5923 24.9902 20.4413C24.8475 20.2901 24.4865 19.778 24.7384 19.5177C24.9902 19.2574 25.2757 19.6521 25.2757 19.6521L25.6116 19.6101L25.7291 18.7034L28.7349 18.2834Z" fill="url(#paint23_linear_3735_1130)"/>
<path d="M24.6148 18.7334C24.6148 18.7334 25.4163 18.9831 26.8156 18.7928C28.2149 18.6025 28.7355 18.2834 28.7355 18.2834L28.5843 16.5427L24.5459 16.8786L24.6148 18.7334Z" fill="url(#paint24_linear_3735_1130)"/>
<path d="M28.5843 16.5427L24.5459 16.8786L24.5935 18.1597C25.7935 18.0977 26.6365 17.4094 26.6365 17.4094C26.6365 17.4094 27.4813 17.4874 27.9981 17.4448C28.3303 17.4175 28.5394 17.326 28.6469 17.264L28.5843 16.5427Z" fill="url(#paint25_linear_3735_1130)"/>
<path d="M26.6405 16.9792C26.6405 16.9792 28.4162 17.7292 28.8976 16.9792C29.3789 16.2291 29.1439 16.0277 29.1439 16.0277C29.1439 16.0277 29.5916 15.0649 28.5729 14.6507C27.5543 14.2365 26.5655 14.8074 26.5655 14.8074C26.5655 14.8074 25.3489 14.1582 24.2743 14.8746C23.1996 15.5911 23.6138 16.1172 23.6138 16.1172C23.6138 16.1172 23.0541 16.6943 23.6698 17.3125C24.2855 17.9307 26.3201 17.4942 26.6405 16.9792Z" fill="url(#paint26_linear_3735_1130)"/>
<path d="M37.5212 28.4307V28.1894L31.1719 27.6641V27.9023H31.172C31.1677 28.4129 31.5392 28.9526 32.2683 29.3736C33.5937 30.1388 35.5986 30.2219 36.7465 29.5592C37.2687 29.2576 37.5235 28.8536 37.5212 28.4307Z" fill="url(#paint27_linear_3735_1130)"/>
<path d="M36.425 26.7361C35.0996 25.9708 33.0946 25.8877 31.9468 26.5504C30.799 27.2131 30.9429 28.3706 32.2683 29.1359C33.5937 29.9012 35.5986 29.9842 36.7465 29.3215C37.8944 28.6588 37.7504 27.5012 36.425 26.7361Z" fill="url(#paint28_linear_3735_1130)"/>
<path d="M35.8416 27.0728C34.8881 26.5223 33.4458 26.4626 32.62 26.9393C31.7942 27.416 31.8978 28.2488 32.8513 28.7993C33.8047 29.3498 35.2471 29.4095 36.0729 28.9328C36.8986 28.456 36.7951 27.6233 35.8416 27.0728Z" fill="url(#paint29_linear_3735_1130)"/>
<path d="M36.1756 26.9855C36.1756 26.9855 37.2287 27.765 36.979 28.2595C36.6692 28.8732 35.887 28.1466 35.6121 27.9049C34.8392 27.2254 34.2324 27.0883 34.1808 26.6879C34.1292 26.2877 35.0513 26.1319 36.1756 26.9855Z" fill="url(#paint30_linear_3735_1130)"/>
<path d="M31.6689 27.6554C31.6689 27.6554 32.0864 27.4859 32.4478 27.3687C32.8092 27.2515 33.213 27.1665 33.4115 27.2161C33.6099 27.2656 33.624 27.6412 33.454 27.7971C33.2839 27.953 32.9863 27.8352 32.9863 27.8352L31.8809 28.1372L31.6689 27.6554Z" fill="url(#paint31_linear_3735_1130)"/>
<path d="M33.1965 27.4316C33.2201 27.3564 33.2792 27.2867 33.3754 27.2312C33.6576 27.0683 34.1504 27.0888 34.4762 27.2768C34.6238 27.3621 34.7116 27.4672 34.7374 27.5717H34.8945C34.8635 27.4459 34.7784 27.2532 34.6007 27.1506C34.2086 26.9243 33.6566 26.8666 33.3171 27.0626C33.183 27.1401 33.0471 27.3396 33.0303 27.4465L33.1965 27.4316Z" fill="url(#paint32_linear_3735_1130)"/>
<path d="M34.7456 27.4802C34.7467 27.5846 34.6842 27.6845 34.5553 27.7589C34.2732 27.9218 33.7804 27.9013 33.4546 27.7133C33.2752 27.6097 33.184 27.4768 33.1853 27.3511L33.0264 27.3379V27.4913H33.0264C33.0252 27.6424 33.1351 27.802 33.3507 27.9265C33.7428 28.1529 34.3358 28.1774 34.6753 27.9814C34.8298 27.8922 34.9052 27.7727 34.9045 27.6476V27.4933L34.7456 27.4802Z" fill="url(#paint33_linear_3735_1130)"/>
<path d="M34.5802 27.0635C34.1881 26.8371 33.5951 26.8126 33.2556 27.0086C32.916 27.2046 32.9586 27.547 33.3507 27.7733C33.7428 27.9997 34.3358 28.0242 34.6753 27.8282C35.0149 27.6322 34.9723 27.2898 34.5802 27.0635ZM34.5553 27.7589C34.2732 27.9218 33.7804 27.9013 33.4546 27.7133C33.1288 27.5252 33.0935 27.2406 33.3756 27.0778C33.6577 26.9149 34.1505 26.9354 34.4763 27.1235C34.8021 27.3115 34.8375 27.596 34.5553 27.7589Z" fill="#C5BAEB"/>
<path d="M31.6719 27.7191C31.6719 27.7191 31.9659 27.7882 32.2494 27.8351C32.5328 27.882 33.1138 27.7049 33.2201 27.6057C33.3264 27.5065 33.5531 27.3435 33.6665 27.3719C33.78 27.4002 33.8295 27.8467 33.6665 28.0096C33.5036 28.1726 33.1918 28.1159 33.1918 28.1159C33.1918 28.1159 32.625 28.3854 32.1148 28.4455C31.6046 28.5056 31.6719 27.7191 31.6719 27.7191Z" fill="url(#paint34_linear_3735_1130)"/>
<path d="M29.5254 27.5474C29.5254 27.5474 30.5706 27.1106 30.9463 27.1029C31.322 27.0951 32.2531 27.6262 32.4716 27.9419C32.6901 28.2576 32.6775 28.4488 32.5473 28.5508C32.4171 28.6527 32.062 28.579 32.062 28.579C32.062 28.579 31.9866 28.8465 31.7288 29.0292C31.471 29.212 30.9426 29.3296 30.6841 29.2553C30.4255 29.1809 29.603 29.056 29.603 29.056L29.5254 27.5474Z" fill="url(#paint35_linear_3735_1130)"/>
<path d="M22.4896 25.9974L24.3224 29.9617C24.4148 30.1615 24.5745 30.3226 24.7734 30.4168C24.9724 30.5109 25.1982 30.5322 25.4113 30.477L30.1246 29.2546C30.1246 29.2546 30.4327 28.2766 29.9191 27.8042C29.6049 27.5153 29.3664 27.4544 29.3664 27.4544L26.0597 28.3357C26.0597 28.3357 25.087 25.6698 24.7428 24.8132C24.3987 23.9567 23.6497 23.9339 23.194 24.0984C22.353 24.402 22.2474 25.4335 22.4896 25.9974Z" fill="#F2EFFA"/>
<path d="M44.904 30.0112V29.77L38.5547 29.2446V29.4828H38.5548C38.5505 29.9935 38.922 30.5332 39.6511 30.9541C40.9765 31.7194 42.9814 31.8024 44.1293 31.1398C44.6515 30.8381 44.9063 30.4341 44.904 30.0112Z" fill="url(#paint36_linear_3735_1130)"/>
<path d="M43.8078 28.3166C42.4824 27.5514 40.4774 27.4683 39.3296 28.131C38.1817 28.7936 38.3257 29.9512 39.6511 30.7165C40.9765 31.4817 42.9814 31.5648 44.1293 30.9021C45.2772 30.2394 45.1332 29.0819 43.8078 28.3166Z" fill="url(#paint37_linear_3735_1130)"/>
<path d="M43.2244 28.6534C42.2709 28.1029 40.8286 28.0431 40.0028 28.5198C39.177 28.9966 39.2806 29.8293 40.2341 30.3798C41.1876 30.9303 42.6299 30.9901 43.4557 30.5134C44.2814 30.0366 44.1779 29.2039 43.2244 28.6534Z" fill="url(#paint38_linear_3735_1130)"/>
<path d="M41.729 28.6645V28.4166L39.7129 28.2498V28.3254L39.713 28.4967C39.7116 28.6589 39.8295 28.8301 40.061 28.9639C40.4819 29.2069 41.1185 29.2332 41.483 29.0228C41.6489 28.9271 41.7298 28.7988 41.729 28.6645Z" fill="url(#paint39_linear_3735_1130)"/>
<path d="M41.3809 27.9549C40.96 27.712 40.3234 27.6855 39.9589 27.896C39.5945 28.1064 39.6402 28.4739 40.0611 28.7169C40.4819 28.9599 41.1185 28.9862 41.483 28.7759C41.8474 28.5655 41.8018 28.1979 41.3809 27.9549Z" fill="url(#paint40_linear_3735_1130)"/>
<path d="M41.304 27.9994C40.9321 27.7847 40.3695 27.7613 40.0475 27.9473C39.7254 28.1333 39.7658 28.458 40.1377 28.6727C40.5096 28.8875 41.0721 28.9108 41.3942 28.7248C41.7162 28.5388 41.6759 28.214 41.304 27.9994Z" fill="url(#paint41_linear_3735_1130)"/>
<path d="M41.0863 28.1253C40.8536 27.9909 40.5016 27.9764 40.3001 28.0927C40.0986 28.2091 40.1239 28.4123 40.3566 28.5466C40.5893 28.681 40.9413 28.6956 41.1428 28.5792C41.3442 28.4629 41.3189 28.2596 41.0863 28.1253Z" fill="url(#paint42_linear_3735_1130)"/>
<path d="M40.3897 28.0806C40.322 28.0415 40.2412 28.0247 40.2092 28.0431C40.1773 28.0616 40.2064 28.1081 40.2742 28.1473C40.342 28.1864 40.4227 28.2032 40.4546 28.1848C40.4866 28.1663 40.4575 28.1197 40.3897 28.0806ZM40.5391 28.6219C40.5222 28.6708 40.5472 28.7179 40.595 28.7271C40.6429 28.7362 40.6954 28.7041 40.7123 28.6552C40.7292 28.6063 40.7042 28.5592 40.6564 28.55C40.6086 28.5409 40.5561 28.573 40.5391 28.6219ZM41.2661 28.3434C41.3508 28.3336 41.4065 28.3034 41.3906 28.2758C41.3747 28.2481 41.2931 28.2337 41.2084 28.2434C41.1237 28.2532 41.068 28.2835 41.0839 28.3111C41.0998 28.3387 41.1814 28.3532 41.2661 28.3434Z" fill="#FCF3B3"/>
<path d="M41.1988 29.3222V29.0743L39.1826 28.9075V29.1545C39.1813 29.3166 39.2992 29.4879 39.5307 29.6216C39.9516 29.8646 40.5882 29.8909 40.9527 29.6806C41.1186 29.5848 41.1995 29.4565 41.1988 29.3222Z" fill="url(#paint43_linear_3735_1130)"/>
<path d="M40.8506 28.6126C40.4298 28.3696 39.7931 28.3433 39.4287 28.5536C39.0642 28.7641 39.1099 29.1317 39.5308 29.3746C39.9516 29.6176 40.5883 29.644 40.9527 29.4336C41.3172 29.2232 41.2715 28.8557 40.8506 28.6126Z" fill="url(#paint44_linear_3735_1130)"/>
<path d="M40.7737 28.6571C40.4018 28.4424 39.8393 28.4191 39.5172 28.605C39.1952 28.791 39.2356 29.1158 39.6074 29.3304C39.9793 29.5451 40.5418 29.5685 40.8639 29.3825C41.1859 29.1965 41.1455 28.8718 40.7737 28.6571Z" fill="url(#paint45_linear_3735_1130)"/>
<path d="M40.556 28.783C40.3233 28.6487 39.9713 28.6341 39.7698 28.7505C39.5683 28.8668 39.5936 29.0701 39.8263 29.2043C40.059 29.3387 40.411 29.3533 40.6125 29.237C40.814 29.1206 40.7887 28.9174 40.556 28.783Z" fill="url(#paint46_linear_3735_1130)"/>
<path d="M39.8594 28.7383C39.7916 28.6992 39.7108 28.6824 39.679 28.7008C39.6471 28.7193 39.6761 28.7659 39.7439 28.805C39.8117 28.8441 39.8925 28.8609 39.9243 28.8425C39.9562 28.8241 39.9271 28.7775 39.8594 28.7383ZM40.0088 29.2797C39.9918 29.3285 40.0169 29.3757 40.0647 29.3848C40.1125 29.394 40.165 29.3619 40.182 29.313C40.1989 29.2641 40.1739 29.217 40.126 29.2078C40.0782 29.1986 40.0257 29.2307 40.0088 29.2797ZM40.7358 29.0012C40.8205 28.9914 40.8763 28.9611 40.8603 28.9335C40.8444 28.9059 40.7627 28.8914 40.6781 28.9012C40.5935 28.9109 40.5377 28.9412 40.5536 28.9688C40.5695 28.9965 40.6511 29.011 40.7358 29.0012Z" fill="#FCF3B3"/>
<path d="M43.4937 28.8435V28.5955L41.4776 28.4287V28.6757C41.4762 28.8379 41.5941 29.0092 41.8256 29.1428C42.2465 29.3858 42.8831 29.4122 43.2476 29.2017C43.4135 29.106 43.4944 28.9777 43.4937 28.8435Z" fill="url(#paint47_linear_3735_1130)"/>
<path d="M43.1455 28.1341C42.7247 27.8911 42.0881 27.8648 41.7236 28.0752C41.3591 28.2856 41.4048 28.6531 41.8257 28.8961C42.2466 29.1391 42.8832 29.1655 43.2477 28.9551C43.6121 28.7447 43.5664 28.3771 43.1455 28.1341Z" fill="url(#paint48_linear_3735_1130)"/>
<path d="M43.0686 28.1783C42.6968 27.9637 42.1342 27.9403 41.8121 28.1263C41.4901 28.3122 41.5305 28.637 41.9023 28.8517C42.2742 29.0664 42.8368 29.0897 43.1588 28.9037C43.4808 28.7178 43.4404 28.393 43.0686 28.1783Z" fill="url(#paint49_linear_3735_1130)"/>
<path d="M42.85 28.3045C42.6173 28.1702 42.2653 28.1556 42.0638 28.2719C41.8623 28.3882 41.8875 28.5914 42.1202 28.7258C42.3529 28.8601 42.7049 28.8747 42.9064 28.7583C43.1079 28.6419 43.0827 28.4388 42.85 28.3045Z" fill="url(#paint50_linear_3735_1130)"/>
<path d="M42.1533 28.2598C42.0855 28.2207 42.0048 28.2039 41.9729 28.2223C41.941 28.2408 41.9701 28.2873 42.0379 28.3265C42.1056 28.3656 42.1864 28.3824 42.2182 28.364C42.2502 28.3456 42.2211 28.299 42.1533 28.2598ZM42.3028 28.8012C42.2859 28.8501 42.3109 28.8972 42.3587 28.9064C42.4066 28.9156 42.459 28.8834 42.476 28.8346C42.4929 28.7856 42.4679 28.7386 42.4201 28.7294C42.3722 28.7201 42.3197 28.7522 42.3028 28.8012ZM43.0298 28.5226C43.1145 28.5128 43.1702 28.4826 43.1542 28.455C43.1383 28.4273 43.0568 28.4129 42.9721 28.4226C42.8873 28.4324 42.8317 28.4627 42.8476 28.4903C42.8635 28.518 42.9451 28.5324 43.0298 28.5226Z" fill="#FCF3B3"/>
<path d="M42.8374 29.4255V29.1776L40.8213 29.0107V29.0864L40.8214 29.2576C40.82 29.4198 40.9379 29.5911 41.1694 29.7248C41.5903 29.9678 42.2269 29.9942 42.5914 29.7838C42.7573 29.6881 42.8382 29.5598 42.8374 29.4255Z" fill="url(#paint51_linear_3735_1130)"/>
<path d="M42.4893 28.7162C42.0684 28.4732 41.4318 28.4468 41.0673 28.6572C40.7029 28.8676 40.7486 29.2351 41.1695 29.4781C41.5903 29.7211 42.2269 29.7475 42.5914 29.537C42.9559 29.3268 42.9102 28.9591 42.4893 28.7162Z" fill="url(#paint52_linear_3735_1130)"/>
<path d="M42.4133 28.7604C42.0415 28.5456 41.4789 28.5224 41.1569 28.7083C40.8348 28.8943 40.8752 29.2191 41.2471 29.4337C41.6189 29.6484 42.1815 29.6718 42.5035 29.4858C42.8256 29.2998 42.7852 28.9751 42.4133 28.7604Z" fill="url(#paint53_linear_3735_1130)"/>
<path d="M42.1947 28.8865C41.962 28.7522 41.61 28.7376 41.4085 28.854C41.207 28.9703 41.2323 29.1735 41.465 29.3079C41.6977 29.4422 42.0497 29.4568 42.2512 29.3404C42.4526 29.2241 42.4274 29.0209 42.1947 28.8865Z" fill="url(#paint54_linear_3735_1130)"/>
<path d="M41.4981 28.8418C41.4303 28.8027 41.3496 28.7859 41.3176 28.8044C41.2857 28.8228 41.3148 28.8694 41.3826 28.9085C41.4503 28.9477 41.5311 28.9644 41.563 28.946C41.5949 28.9276 41.5658 28.881 41.4981 28.8418ZM41.6475 29.3832C41.6306 29.4321 41.6556 29.4792 41.7034 29.4884C41.7513 29.4975 41.8038 29.4654 41.8207 29.4165C41.8376 29.3677 41.8126 29.3205 41.7648 29.3113C41.7169 29.3021 41.6645 29.3342 41.6475 29.3832ZM42.3745 29.1047C42.4592 29.0949 42.5149 29.0646 42.499 29.037C42.4831 29.0094 42.4014 28.9949 42.3168 29.0047C42.2321 29.0145 42.1763 29.0448 42.1923 29.0724C42.2082 29.1 42.2898 29.1145 42.3745 29.1047Z" fill="#FCF3B3"/>
<path d="M44.7261 29.6579V29.41L42.71 29.2432V29.4901C42.7086 29.6523 42.8265 29.8236 43.058 29.9573C43.4789 30.2003 44.1155 30.2266 44.48 30.0162C44.646 29.9205 44.7268 29.7922 44.7261 29.6579Z" fill="url(#paint55_linear_3735_1130)"/>
<path d="M44.378 28.9483C43.9571 28.7054 43.3205 28.6789 42.956 28.8894C42.5915 29.0998 42.6373 29.4673 43.0581 29.7103C43.479 29.9533 44.1156 29.9797 44.4801 29.7693C44.8446 29.5589 44.7988 29.1913 44.378 28.9483Z" fill="url(#paint56_linear_3735_1130)"/>
<path d="M44.302 28.9928C43.9302 28.7781 43.3676 28.7548 43.0455 28.9407C42.7235 29.1267 42.7639 29.4515 43.1357 29.6661C43.5076 29.8809 44.0702 29.9042 44.3922 29.7182C44.7142 29.5322 44.6738 29.2075 44.302 28.9928Z" fill="url(#paint57_linear_3735_1130)"/>
<path d="M44.0834 29.1187C43.8507 28.9843 43.4987 28.9698 43.2972 29.0862C43.0957 29.2025 43.1209 29.4057 43.3536 29.54C43.5863 29.6744 43.9383 29.689 44.1398 29.5726C44.3413 29.4562 44.3161 29.2531 44.0834 29.1187Z" fill="url(#paint58_linear_3735_1130)"/>
<path d="M43.3867 29.074C43.3189 29.0349 43.2382 29.0181 43.2063 29.0365C43.1744 29.055 43.2035 29.1016 43.2713 29.1407C43.339 29.1798 43.4198 29.1966 43.4517 29.1782C43.4836 29.1598 43.4545 29.1131 43.3867 29.074ZM43.5361 29.6153C43.5192 29.6641 43.5442 29.7113 43.592 29.7205C43.6399 29.7296 43.6924 29.6975 43.7093 29.6486C43.7262 29.5998 43.7012 29.5526 43.6534 29.5434C43.6056 29.5343 43.5531 29.5664 43.5361 29.6153ZM44.2632 29.3368C44.3479 29.327 44.4036 29.2968 44.3876 29.2692C44.3717 29.2416 44.2901 29.227 44.2054 29.2369C44.1207 29.2467 44.065 29.2769 44.0809 29.3045C44.0968 29.3321 44.1785 29.3466 44.2632 29.3368Z" fill="#FCF3B3"/>
<path d="M44.2798 30.4641V30.2161L42.2637 30.0493V30.2962C42.2623 30.4584 42.3802 30.6297 42.6118 30.7634C43.0326 31.0063 43.6693 31.0328 44.0337 30.8223C44.1997 30.7266 44.2805 30.5983 44.2798 30.4641Z" fill="url(#paint59_linear_3735_1130)"/>
<path d="M43.9317 29.7545C43.5108 29.5115 42.8742 29.4851 42.5097 29.6955C42.1452 29.9059 42.191 30.2735 42.6118 30.5164C43.0327 30.7594 43.6693 30.7858 44.0338 30.5753C44.3983 30.365 44.3525 29.9974 43.9317 29.7545Z" fill="url(#paint60_linear_3735_1130)"/>
<path d="M43.8547 29.7987C43.4829 29.584 42.9203 29.5607 42.5983 29.7466C42.2762 29.9326 42.3166 30.2574 42.6885 30.4721C43.0603 30.6867 43.6229 30.7101 43.9449 30.5241C44.267 30.3383 44.2266 30.0134 43.8547 29.7987Z" fill="url(#paint61_linear_3735_1130)"/>
<path d="M43.6371 29.9249C43.4044 29.7905 43.0524 29.7759 42.8509 29.8923C42.6494 30.0087 42.6746 30.2118 42.9073 30.3462C43.14 30.4805 43.492 30.4951 43.6935 30.3788C43.895 30.2624 43.8698 30.0592 43.6371 29.9249Z" fill="url(#paint62_linear_3735_1130)"/>
<path d="M42.9404 29.8802C42.8727 29.841 42.7919 29.8243 42.76 29.8427C42.7281 29.8611 42.7572 29.9077 42.825 29.9468C42.8927 29.986 42.9735 30.0028 43.0054 29.9843C43.0372 29.966 43.0081 29.9193 42.9404 29.8802ZM43.0898 30.4215C43.0729 30.4705 43.0979 30.5175 43.1458 30.5267C43.1936 30.5359 43.2461 30.5037 43.263 30.4548C43.2799 30.406 43.2549 30.3588 43.2071 30.3497C43.1592 30.3405 43.1068 30.3726 43.0898 30.4215ZM43.8168 30.143C43.9015 30.1332 43.9572 30.1029 43.9413 30.0753C43.9254 30.0477 43.8438 30.0333 43.7591 30.043C43.6744 30.0528 43.6187 30.0831 43.6346 30.1107C43.6505 30.1384 43.7321 30.1528 43.8168 30.143Z" fill="#FCF3B3"/>
<path d="M43.4107 29.9057V29.6578L41.3945 29.491V29.5666L41.3946 29.7379C41.3933 29.9001 41.5112 30.0714 41.7427 30.2051C42.1636 30.4481 42.8002 30.4745 43.1646 30.2641C43.3305 30.1683 43.4114 30.04 43.4107 29.9057Z" fill="url(#paint63_linear_3735_1130)"/>
<path d="M43.0625 29.1961C42.6417 28.9531 42.005 28.9268 41.6406 29.1372C41.2761 29.3476 41.3218 29.7152 41.7427 29.9581C42.1636 30.2011 42.8002 30.2275 43.1647 30.0171C43.5291 29.8067 43.4834 29.4391 43.0625 29.1961Z" fill="url(#paint64_linear_3735_1130)"/>
<path d="M42.9856 29.2406C42.6138 29.0259 42.0512 29.0026 41.7291 29.1885C41.4071 29.3745 41.4475 29.6993 41.8193 29.9139C42.1912 30.1286 42.7538 30.152 43.0758 29.966C43.3978 29.78 43.3574 29.4553 42.9856 29.2406Z" fill="url(#paint65_linear_3735_1130)"/>
<path d="M42.767 29.3665C42.5342 29.2322 42.1822 29.2176 41.9808 29.3339C41.7793 29.4502 41.8045 29.6535 42.0372 29.7878C42.2699 29.9221 42.6219 29.9367 42.8234 29.8204C43.0249 29.7041 42.9997 29.5009 42.767 29.3665Z" fill="url(#paint66_linear_3735_1130)"/>
<path d="M42.0713 29.3218C42.0035 29.2827 41.9227 29.2659 41.8909 29.2843C41.859 29.3028 41.8881 29.3494 41.9558 29.3885C42.0236 29.4276 42.1044 29.4444 42.1362 29.426C42.1681 29.4076 42.139 29.361 42.0713 29.3218ZM42.2208 29.8632C42.2038 29.912 42.2288 29.9592 42.2767 29.9683C42.3245 29.9775 42.377 29.9454 42.3939 29.8965C42.4109 29.8476 42.3859 29.8005 42.338 29.7913C42.2902 29.7821 42.2377 29.8142 42.2208 29.8632ZM42.9477 29.5847C43.0325 29.5748 43.0881 29.5446 43.0722 29.517C43.0563 29.4894 42.9747 29.4749 42.89 29.4847C42.8053 29.4945 42.7496 29.5247 42.7656 29.5523C42.7815 29.5799 42.863 29.5945 42.9477 29.5847Z" fill="#FCF3B3"/>
<path d="M42.8824 30.8364V30.5885L40.8662 30.4216V30.4972L40.8663 30.6685C40.865 30.8307 40.9828 31.002 41.2144 31.1357C41.6352 31.3787 42.2719 31.4051 42.6363 31.1947C42.8022 31.099 42.8831 30.9707 42.8824 30.8364Z" fill="url(#paint67_linear_3735_1130)"/>
<path d="M42.5342 30.127C42.1134 29.884 41.4767 29.8577 41.1123 30.068C40.7478 30.2785 40.7935 30.6461 41.2144 30.889C41.6352 31.132 42.2719 31.1584 42.6363 30.9479C43.0008 30.7375 42.9551 30.37 42.5342 30.127Z" fill="url(#paint68_linear_3735_1130)"/>
<path d="M42.4573 30.1713C42.0854 29.9565 41.5228 29.9332 41.2008 30.1192C40.8788 30.3052 40.9192 30.63 41.291 30.8446C41.6628 31.0593 42.2254 31.0827 42.5475 30.8967C42.8695 30.7108 42.8292 30.386 42.4573 30.1713Z" fill="url(#paint69_linear_3735_1130)"/>
<path d="M42.2396 30.2974C42.0069 30.1631 41.6549 30.1485 41.4534 30.2649C41.2519 30.3812 41.2772 30.5844 41.5099 30.7187C41.7426 30.8531 42.0946 30.8677 42.2961 30.7513C42.4976 30.6349 42.4723 30.4318 42.2396 30.2974Z" fill="url(#paint70_linear_3735_1130)"/>
<path d="M41.543 30.2525C41.4753 30.2134 41.3945 30.1966 41.3626 30.215C41.3306 30.2334 41.3597 30.28 41.4275 30.3192C41.4953 30.3583 41.5761 30.3751 41.608 30.3567C41.6398 30.3383 41.6108 30.2916 41.543 30.2525ZM41.6924 30.7938C41.6755 30.8428 41.7005 30.8898 41.7484 30.899C41.7962 30.9082 41.8487 30.876 41.8656 30.8272C41.8826 30.7783 41.8575 30.7312 41.8097 30.722C41.7619 30.7127 41.7094 30.745 41.6924 30.7938ZM42.4194 30.5153C42.5041 30.5055 42.5599 30.4752 42.5439 30.4476C42.528 30.42 42.4464 30.4056 42.3617 30.4153C42.277 30.4251 42.2212 30.4554 42.2372 30.483C42.2532 30.5107 42.3347 30.5251 42.4194 30.5153Z" fill="#FCF3B3"/>
<path d="M41.565 30.4882V30.2403L39.5488 30.0735V30.1491L39.5489 30.3204C39.5476 30.4826 39.6655 30.6539 39.897 30.7876C40.3178 31.0306 40.9545 31.0569 41.3189 30.8465C41.4848 30.7507 41.5657 30.6225 41.565 30.4882Z" fill="url(#paint71_linear_3735_1130)"/>
<path d="M41.2168 29.7787C40.796 29.5357 40.1593 29.5093 39.7949 29.7197C39.4304 29.9301 39.4761 30.2976 39.897 30.5406C40.3179 30.7836 40.9545 30.81 41.319 30.5996C41.6834 30.3893 41.6377 30.0216 41.2168 29.7787Z" fill="url(#paint72_linear_3735_1130)"/>
<path d="M41.1399 29.8231C40.7681 29.6084 40.2055 29.5851 39.8834 29.771C39.5614 29.957 39.6018 30.2818 39.9736 30.4964C40.3455 30.7112 40.9081 30.7345 41.2301 30.5485C41.5521 30.3626 41.5118 30.0379 41.1399 29.8231Z" fill="url(#paint73_linear_3735_1130)"/>
<path d="M40.9212 29.949C40.6885 29.8147 40.3365 29.8001 40.1351 29.9165C39.9336 30.0328 39.9588 30.236 40.1915 30.3704C40.4242 30.5047 40.7762 30.5193 40.9777 30.4029C41.1792 30.2865 41.154 30.0834 40.9212 29.949Z" fill="url(#paint74_linear_3735_1130)"/>
<path d="M40.2247 29.9043C40.1569 29.8652 40.0761 29.8484 40.0442 29.8669C40.0123 29.8853 40.0414 29.9319 40.1091 29.971C40.1769 30.0102 40.2577 30.0269 40.2895 30.0085C40.3215 29.9901 40.2924 29.9434 40.2247 29.9043ZM40.3741 30.4456C40.3571 30.4945 40.3822 30.5416 40.43 30.5508C40.4779 30.56 40.5303 30.5278 40.5473 30.4789C40.5642 30.4301 40.5392 30.3829 40.4913 30.3738C40.4435 30.3646 40.391 30.3967 40.3741 30.4456ZM41.1011 30.1672C41.1858 30.1574 41.2415 30.1271 41.2255 30.0995C41.2096 30.0719 41.1281 30.0574 41.0433 30.0672C40.9586 30.077 40.903 30.1073 40.9189 30.1349C40.9348 30.1625 41.0164 30.1769 41.1011 30.1672Z" fill="#FCF3B3"/>
<path d="M36.0171 28.9123V28.6644L34.001 28.4976V28.5732L34.0011 28.7445C33.9997 28.9067 34.1176 29.078 34.3491 29.2117C34.77 29.4547 35.4066 29.481 35.7711 29.2707C35.9369 29.1749 36.0178 29.0466 36.0171 28.9123Z" fill="url(#paint75_linear_3735_1130)"/>
<path d="M35.669 28.2027C35.2481 27.9597 34.6115 27.9334 34.247 28.1438C33.8826 28.3542 33.9283 28.7217 34.3491 28.9647C34.77 29.2077 35.4066 29.2341 35.7711 29.0236C36.1356 28.8133 36.0898 28.4457 35.669 28.2027Z" fill="url(#paint76_linear_3735_1130)"/>
<path d="M35.592 28.2472C35.2202 28.0325 34.6576 28.0092 34.3356 28.1951C34.0135 28.3811 34.0539 28.7059 34.4258 28.9205C34.7976 29.1352 35.3602 29.1586 35.6822 28.9726C36.0043 28.7867 35.9639 28.4619 35.592 28.2472Z" fill="url(#paint77_linear_3735_1130)"/>
<path d="M35.3744 28.3731C35.1417 28.2388 34.7897 28.2242 34.5882 28.3405C34.3867 28.4568 34.4119 28.6601 34.6446 28.7944C34.8774 28.9287 35.2294 28.9433 35.4308 28.8269C35.6323 28.7105 35.6071 28.5075 35.3744 28.3731Z" fill="url(#paint78_linear_3735_1130)"/>
<path d="M34.6777 28.3284C34.61 28.2893 34.5292 28.2725 34.4973 28.2909C34.4654 28.3094 34.4945 28.356 34.5623 28.3951C34.63 28.4342 34.7108 28.451 34.7427 28.4326C34.7746 28.4141 34.7455 28.3676 34.6777 28.3284ZM34.8272 28.8698C34.8103 28.9186 34.8353 28.9658 34.8831 28.9749C34.931 28.9841 34.9834 28.952 35.0004 28.9031C35.0173 28.8542 34.9923 28.8071 34.9445 28.7979C34.8966 28.7887 34.8442 28.8208 34.8272 28.8698ZM35.5542 28.5912C35.6389 28.5814 35.6947 28.5512 35.6787 28.5236C35.6627 28.496 35.5811 28.4815 35.4964 28.4912C35.4117 28.501 35.356 28.5313 35.3719 28.5589C35.3879 28.5865 35.4695 28.601 35.5542 28.5912Z" fill="#FCF3B3"/>
<path d="M26.2911 24.2376C26.2472 24.2147 26.1908 24.2182 26.1294 24.2536C25.9889 24.3347 25.875 24.5524 25.875 24.7398C25.875 24.845 25.911 24.9183 25.9674 24.9479L26.0187 24.9779L26.3476 24.2704L26.2911 24.2376Z" fill="url(#paint79_linear_3735_1130)"/>
<path d="M26.4385 24.4782C26.4385 24.2908 26.3247 24.2048 26.1841 24.2859C26.0436 24.367 25.9297 24.5846 25.9297 24.772C25.9297 24.9594 26.0436 25.0455 26.1841 24.9643C26.3247 24.8832 26.4385 24.6656 26.4385 24.4782Z" fill="#594A8E"/>
<path d="M26.2911 26.3795C26.2472 26.3566 26.1908 26.3601 26.1294 26.3955C25.9889 26.4766 25.875 26.6942 25.875 26.8816C25.875 26.9868 25.911 27.0602 25.9674 27.0897L26.0187 27.1197L26.3476 26.4122L26.2911 26.3795Z" fill="url(#paint80_linear_3735_1130)"/>
<path d="M26.4385 26.6201C26.4385 26.4327 26.3247 26.3466 26.1841 26.4277C26.0436 26.5088 25.9297 26.7265 25.9297 26.9139C25.9297 27.1012 26.0436 27.1873 26.1841 27.1062C26.3247 27.0251 26.4385 26.8074 26.4385 26.6201Z" fill="#594A8E"/>
<path d="M26.2911 30.6632C26.2472 30.6403 26.1908 30.6437 26.1294 30.6792C25.9889 30.7603 25.875 30.9779 25.875 31.1653C25.875 31.2705 25.911 31.3439 25.9674 31.3734L26.0187 31.4034L26.3476 30.696L26.2911 30.6632Z" fill="url(#paint81_linear_3735_1130)"/>
<path d="M26.4385 30.9037C26.4385 30.7164 26.3247 30.6303 26.1841 30.7114C26.0436 30.7925 25.9297 31.0102 25.9297 31.1976C25.9297 31.3849 26.0436 31.471 26.1841 31.3899C26.3247 31.3087 26.4385 31.091 26.4385 30.9037Z" fill="#594A8E"/>
</g>
<defs>
<linearGradient id="paint0_linear_3735_1130" x1="28.8486" y1="21.791" x2="32.5751" y2="21.791" gradientUnits="userSpaceOnUse">
<stop stop-color="#E9E5F6"/>
<stop offset="1" stop-color="#F2EFFA"/>
</linearGradient>
<linearGradient id="paint1_linear_3735_1130" x1="22.2871" y1="20.6599" x2="29.7913" y2="20.6599" gradientUnits="userSpaceOnUse">
<stop stop-color="#E9E5F6"/>
<stop offset="1" stop-color="#F2EFFA"/>
</linearGradient>
<linearGradient id="paint2_linear_3735_1130" x1="25.2178" y1="19.3591" x2="27.9978" y2="19.3591" gradientUnits="userSpaceOnUse">
<stop stop-color="#DEA861"/>
<stop offset="1" stop-color="#EBCBA0"/>
</linearGradient>
<linearGradient id="paint3_linear_3735_1130" x1="26.5029" y1="19.8551" x2="27.1719" y2="23.483" gradientUnits="userSpaceOnUse">
<stop stop-color="#CC8241"/>
<stop offset="1" stop-color="#CC8241" stop-opacity="0"/>
</linearGradient>
<linearGradient id="paint4_linear_3735_1130" x1="24.8174" y1="21.0872" x2="28.2286" y2="21.0872" gradientUnits="userSpaceOnUse">
<stop stop-color="#E9E5F6"/>
<stop offset="1" stop-color="#F2EFFA"/>
</linearGradient>
<linearGradient id="paint5_linear_3735_1130" x1="25.4004" y1="22.1255" x2="26.311" y2="22.1255" gradientUnits="userSpaceOnUse">
<stop stop-color="#43386B"/>
<stop offset="1" stop-color="#594A8E"/>
</linearGradient>
<linearGradient id="paint6_linear_3735_1130" x1="19.0811" y1="30.5911" x2="48.9183" y2="30.5911" gradientUnits="userSpaceOnUse">
<stop stop-color="#C5BAEB"/>
<stop offset="1" stop-color="#D7D1EB"/>
</linearGradient>
<linearGradient id="paint7_linear_3735_1130" x1="16.7793" y1="37.1863" x2="20.4193" y2="37.1863" gradientUnits="userSpaceOnUse">
<stop stop-color="#C5BAEB"/>
<stop offset="1" stop-color="#D7D1EB"/>
</linearGradient>
<linearGradient id="paint8_linear_3735_1130" x1="47.5801" y1="30.6494" x2="51.22" y2="30.6494" gradientUnits="userSpaceOnUse">
<stop stop-color="#C5BAEB"/>
<stop offset="1" stop-color="#D7D1EB"/>
</linearGradient>
<linearGradient id="paint9_linear_3735_1130" x1="25.2139" y1="42.1943" x2="31.0598" y2="42.1943" gradientUnits="userSpaceOnUse">
<stop stop-color="#C5BAEB"/>
<stop offset="1" stop-color="#D7D1EB"/>
</linearGradient>
<linearGradient id="paint10_linear_3735_1130" x1="19.0801" y1="25.281" x2="48.919" y2="25.281" gradientUnits="userSpaceOnUse">
<stop stop-color="#E9E5F6"/>
<stop offset="1" stop-color="#F2EFFA"/>
</linearGradient>
<linearGradient id="paint11_linear_3735_1130" x1="29.707" y1="32.324" x2="40.7715" y2="32.324" gradientUnits="userSpaceOnUse">
<stop stop-color="#C5BAEB"/>
<stop offset="1" stop-color="#D7D1EB"/>
</linearGradient>
<linearGradient id="paint12_linear_3735_1130" x1="29.707" y1="29.5955" x2="40.7719" y2="29.5955" gradientUnits="userSpaceOnUse">
<stop stop-color="#E9E5F6"/>
<stop offset="1" stop-color="#F2EFFA"/>
</linearGradient>
<linearGradient id="paint13_linear_3735_1130" x1="30.0674" y1="29.8838" x2="40.4105" y2="29.8838" gradientUnits="userSpaceOnUse">
<stop stop-color="#D7D1EB"/>
<stop offset="1" stop-color="#F2EFFA"/>
</linearGradient>
<linearGradient id="paint14_linear_3735_1130" x1="31.0059" y1="29.8345" x2="34.795" y2="29.8345" gradientUnits="userSpaceOnUse">
<stop stop-color="#DEA861"/>
<stop offset="1" stop-color="#EBCBA0"/>
</linearGradient>
<linearGradient id="paint15_linear_3735_1130" x1="32.4619" y1="30.6904" x2="36.251" y2="30.6904" gradientUnits="userSpaceOnUse">
<stop stop-color="#DEA861"/>
<stop offset="1" stop-color="#EBCBA0"/>
</linearGradient>
<linearGradient id="paint16_linear_3735_1130" x1="33.9189" y1="31.5464" x2="37.708" y2="31.5464" gradientUnits="userSpaceOnUse">
<stop stop-color="#DEA861"/>
<stop offset="1" stop-color="#EBCBA0"/>
</linearGradient>
<linearGradient id="paint17_linear_3735_1130" x1="35.376" y1="32.4023" x2="39.1651" y2="32.4023" gradientUnits="userSpaceOnUse">
<stop stop-color="#DEA861"/>
<stop offset="1" stop-color="#EBCBA0"/>
</linearGradient>
<linearGradient id="paint18_linear_3735_1130" x1="20.79" y1="34.4683" x2="33.1158" y2="34.4683" gradientUnits="userSpaceOnUse">
<stop stop-color="#C5BAEB"/>
<stop offset="1" stop-color="#D7D1EB"/>
</linearGradient>
<linearGradient id="paint19_linear_3735_1130" x1="20.79" y1="31.437" x2="33.1158" y2="31.437" gradientUnits="userSpaceOnUse">
<stop stop-color="#E9E5F6"/>
<stop offset="1" stop-color="#F2EFFA"/>
</linearGradient>
<linearGradient id="paint20_linear_3735_1130" x1="21.1924" y1="31.7583" x2="32.7142" y2="31.7583" gradientUnits="userSpaceOnUse">
<stop stop-color="#C5BAEB"/>
<stop offset="1" stop-color="#D7D1EB"/>
</linearGradient>
<linearGradient id="paint21_linear_3735_1130" x1="21.6172" y1="32.2493" x2="32.2891" y2="32.2493" gradientUnits="userSpaceOnUse">
<stop stop-color="#8B451C"/>
<stop offset="1" stop-color="#BA5C25"/>
</linearGradient>
<linearGradient id="paint22_linear_3735_1130" x1="24.6143" y1="18.7031" x2="26.636" y2="18.7031" gradientUnits="userSpaceOnUse">
<stop stop-color="#43386B"/>
<stop offset="1" stop-color="#594A8E"/>
</linearGradient>
<linearGradient id="paint23_linear_3735_1130" x1="24.6514" y1="18.2834" x2="28.8252" y2="18.2834" gradientUnits="userSpaceOnUse">
<stop stop-color="#DEA861"/>
<stop offset="1" stop-color="#EBCBA0"/>
</linearGradient>
<linearGradient id="paint24_linear_3735_1130" x1="24.5459" y1="16.5427" x2="28.7355" y2="16.5427" gradientUnits="userSpaceOnUse">
<stop stop-color="#E9E5F6"/>
<stop offset="1" stop-color="#F2EFFA"/>
</linearGradient>
<linearGradient id="paint25_linear_3735_1130" x1="24.1871" y1="15.9659" x2="27.3013" y2="17.7621" gradientUnits="userSpaceOnUse">
<stop stop-color="#A996EB"/>
<stop offset="1" stop-color="#A996EB" stop-opacity="0"/>
</linearGradient>
<linearGradient id="paint26_linear_3735_1130" x1="23.3809" y1="14.5" x2="29.2419" y2="14.5" gradientUnits="userSpaceOnUse">
<stop stop-color="#E9E5F6"/>
<stop offset="1" stop-color="#F2EFFA"/>
</linearGradient>
<linearGradient id="paint27_linear_3735_1130" x1="31.1719" y1="27.6641" x2="37.5212" y2="27.6641" gradientUnits="userSpaceOnUse">
<stop stop-color="#C5BAEB"/>
<stop offset="1" stop-color="#D7D1EB"/>
</linearGradient>
<linearGradient id="paint28_linear_3735_1130" x1="31.1719" y1="26.103" x2="37.5214" y2="26.103" gradientUnits="userSpaceOnUse">
<stop stop-color="#D7D1EB"/>
<stop offset="1" stop-color="#F2EFFA"/>
</linearGradient>
<linearGradient id="paint29_linear_3735_1130" x1="32.0625" y1="26.6174" x2="36.6304" y2="26.6174" gradientUnits="userSpaceOnUse">
<stop stop-color="#D7D1EB"/>
<stop offset="1" stop-color="#F2EFFA"/>
</linearGradient>
<linearGradient id="paint30_linear_3735_1130" x1="34.1787" y1="26.365" x2="37.0173" y2="26.365" gradientUnits="userSpaceOnUse">
<stop stop-color="#8B451C"/>
<stop offset="1" stop-color="#BA5C25"/>
</linearGradient>
<linearGradient id="paint31_linear_3735_1130" x1="31.6689" y1="27.2017" x2="33.5717" y2="27.2017" gradientUnits="userSpaceOnUse">
<stop stop-color="#43386B"/>
<stop offset="1" stop-color="#594A8E"/>
</linearGradient>
<linearGradient id="paint32_linear_3735_1130" x1="33.0303" y1="26.9436" x2="34.8945" y2="26.9436" gradientUnits="userSpaceOnUse">
<stop stop-color="#594A8E"/>
<stop offset="1" stop-color="#7662BD"/>
</linearGradient>
<linearGradient id="paint33_linear_3735_1130" x1="33.0264" y1="27.3379" x2="34.9045" y2="27.3379" gradientUnits="userSpaceOnUse">
<stop stop-color="#594A8E"/>
<stop offset="1" stop-color="#7662BD"/>
</linearGradient>
<linearGradient id="paint34_linear_3735_1130" x1="31.6689" y1="27.3687" x2="33.771" y2="27.3687" gradientUnits="userSpaceOnUse">
<stop stop-color="#43386B"/>
<stop offset="1" stop-color="#594A8E"/>
</linearGradient>
<linearGradient id="paint35_linear_3735_1130" x1="29.5254" y1="27.1028" x2="32.6413" y2="27.1028" gradientUnits="userSpaceOnUse">
<stop stop-color="#43386B"/>
<stop offset="1" stop-color="#594A8E"/>
</linearGradient>
<linearGradient id="paint36_linear_3735_1130" x1="38.5547" y1="29.2446" x2="44.904" y2="29.2446" gradientUnits="userSpaceOnUse">
<stop stop-color="#C5BAEB"/>
<stop offset="1" stop-color="#D7D1EB"/>
</linearGradient>
<linearGradient id="paint37_linear_3735_1130" x1="38.5547" y1="27.6836" x2="44.9042" y2="27.6836" gradientUnits="userSpaceOnUse">
<stop stop-color="#D7D1EB"/>
<stop offset="1" stop-color="#F2EFFA"/>
</linearGradient>
<linearGradient id="paint38_linear_3735_1130" x1="39.4453" y1="28.198" x2="44.0132" y2="28.198" gradientUnits="userSpaceOnUse">
<stop stop-color="#D7D1EB"/>
<stop offset="1" stop-color="#F2EFFA"/>
</linearGradient>
<linearGradient id="paint39_linear_3735_1130" x1="39.7129" y1="28.2498" x2="41.7291" y2="28.2498" gradientUnits="userSpaceOnUse">
<stop stop-color="#1A4C4E"/>
<stop offset="1" stop-color="#236568"/>
</linearGradient>
<linearGradient id="paint40_linear_3735_1130" x1="39.7129" y1="27.7539" x2="41.729" y2="27.7539" gradientUnits="userSpaceOnUse">
<stop stop-color="#2F878A"/>
<stop offset="1" stop-color="#06DAAE"/>
</linearGradient>
<linearGradient id="paint41_linear_3735_1130" x1="39.8301" y1="27.8218" x2="41.6116" y2="27.8218" gradientUnits="userSpaceOnUse">
<stop stop-color="#9BF0DF"/>
<stop offset="1" stop-color="#FCF3B3"/>
</linearGradient>
<linearGradient id="paint42_linear_3735_1130" x1="40.1641" y1="28.0142" x2="41.2788" y2="28.0142" gradientUnits="userSpaceOnUse">
<stop stop-color="#9BF0DF"/>
<stop offset="0.058" stop-color="#A1F0DC"/>
<stop offset="0.698" stop-color="#E2F2BF"/>
<stop offset="1" stop-color="#FCF3B3"/>
</linearGradient>
<linearGradient id="paint43_linear_3735_1130" x1="39.1826" y1="28.9075" x2="41.1988" y2="28.9075" gradientUnits="userSpaceOnUse">
<stop stop-color="#1A4C4E"/>
<stop offset="1" stop-color="#236568"/>
</linearGradient>
<linearGradient id="paint44_linear_3735_1130" x1="39.1826" y1="28.4116" x2="41.1988" y2="28.4116" gradientUnits="userSpaceOnUse">
<stop stop-color="#2F878A"/>
<stop offset="1" stop-color="#06DAAE"/>
</linearGradient>
<linearGradient id="paint45_linear_3735_1130" x1="39.2998" y1="28.4795" x2="41.0813" y2="28.4795" gradientUnits="userSpaceOnUse">
<stop stop-color="#9BF0DF"/>
<stop offset="1" stop-color="#FCF3B3"/>
</linearGradient>
<linearGradient id="paint46_linear_3735_1130" x1="39.6338" y1="28.6719" x2="40.7485" y2="28.6719" gradientUnits="userSpaceOnUse">
<stop stop-color="#9BF0DF"/>
<stop offset="0.058" stop-color="#A1F0DC"/>
<stop offset="0.698" stop-color="#E2F2BF"/>
<stop offset="1" stop-color="#FCF3B3"/>
</linearGradient>
<linearGradient id="paint47_linear_3735_1130" x1="41.4775" y1="28.4287" x2="43.4937" y2="28.4287" gradientUnits="userSpaceOnUse">
<stop stop-color="#1A4C4E"/>
<stop offset="1" stop-color="#236568"/>
</linearGradient>
<linearGradient id="paint48_linear_3735_1130" x1="41.4775" y1="27.9331" x2="43.4937" y2="27.9331" gradientUnits="userSpaceOnUse">
<stop stop-color="#2F878A"/>
<stop offset="1" stop-color="#06DAAE"/>
</linearGradient>
<linearGradient id="paint49_linear_3735_1130" x1="41.5947" y1="28.0007" x2="43.3762" y2="28.0007" gradientUnits="userSpaceOnUse">
<stop stop-color="#9BF0DF"/>
<stop offset="1" stop-color="#FCF3B3"/>
</linearGradient>
<linearGradient id="paint50_linear_3735_1130" x1="41.9277" y1="28.1934" x2="43.0425" y2="28.1934" gradientUnits="userSpaceOnUse">
<stop stop-color="#9BF0DF"/>
<stop offset="0.058" stop-color="#A1F0DC"/>
<stop offset="0.698" stop-color="#E2F2BF"/>
<stop offset="1" stop-color="#FCF3B3"/>
</linearGradient>
<linearGradient id="paint51_linear_3735_1130" x1="40.8213" y1="29.0107" x2="42.8375" y2="29.0107" gradientUnits="userSpaceOnUse">
<stop stop-color="#1A4C4E"/>
<stop offset="1" stop-color="#236568"/>
</linearGradient>
<linearGradient id="paint52_linear_3735_1130" x1="40.8213" y1="28.5151" x2="42.8375" y2="28.5151" gradientUnits="userSpaceOnUse">
<stop stop-color="#2F878A"/>
<stop offset="1" stop-color="#06DAAE"/>
</linearGradient>
<linearGradient id="paint53_linear_3735_1130" x1="40.9395" y1="28.5828" x2="42.7209" y2="28.5828" gradientUnits="userSpaceOnUse">
<stop stop-color="#9BF0DF"/>
<stop offset="1" stop-color="#FCF3B3"/>
</linearGradient>
<linearGradient id="paint54_linear_3735_1130" x1="41.2725" y1="28.7754" x2="42.3872" y2="28.7754" gradientUnits="userSpaceOnUse">
<stop stop-color="#9BF0DF"/>
<stop offset="0.058" stop-color="#A1F0DC"/>
<stop offset="0.698" stop-color="#E2F2BF"/>
<stop offset="1" stop-color="#FCF3B3"/>
</linearGradient>
<linearGradient id="paint55_linear_3735_1130" x1="42.71" y1="29.2432" x2="44.7261" y2="29.2432" gradientUnits="userSpaceOnUse">
<stop stop-color="#1A4C4E"/>
<stop offset="1" stop-color="#236568"/>
</linearGradient>
<linearGradient id="paint56_linear_3735_1130" x1="42.71" y1="28.7473" x2="44.7261" y2="28.7473" gradientUnits="userSpaceOnUse">
<stop stop-color="#2F878A"/>
<stop offset="1" stop-color="#06DAAE"/>
</linearGradient>
<linearGradient id="paint57_linear_3735_1130" x1="42.8281" y1="28.8152" x2="44.6096" y2="28.8152" gradientUnits="userSpaceOnUse">
<stop stop-color="#9BF0DF"/>
<stop offset="1" stop-color="#FCF3B3"/>
</linearGradient>
<linearGradient id="paint58_linear_3735_1130" x1="43.1611" y1="29.0076" x2="44.2759" y2="29.0076" gradientUnits="userSpaceOnUse">
<stop stop-color="#9BF0DF"/>
<stop offset="0.058" stop-color="#A1F0DC"/>
<stop offset="0.698" stop-color="#E2F2BF"/>
<stop offset="1" stop-color="#FCF3B3"/>
</linearGradient>
<linearGradient id="paint59_linear_3735_1130" x1="42.2637" y1="30.0493" x2="44.2798" y2="30.0493" gradientUnits="userSpaceOnUse">
<stop stop-color="#1A4C4E"/>
<stop offset="1" stop-color="#236568"/>
</linearGradient>
<linearGradient id="paint60_linear_3735_1130" x1="42.2637" y1="29.5535" x2="44.2798" y2="29.5535" gradientUnits="userSpaceOnUse">
<stop stop-color="#2F878A"/>
<stop offset="1" stop-color="#06DAAE"/>
</linearGradient>
<linearGradient id="paint61_linear_3735_1130" x1="42.3809" y1="29.6211" x2="44.1623" y2="29.6211" gradientUnits="userSpaceOnUse">
<stop stop-color="#9BF0DF"/>
<stop offset="1" stop-color="#FCF3B3"/>
</linearGradient>
<linearGradient id="paint62_linear_3735_1130" x1="42.7148" y1="29.8137" x2="43.8296" y2="29.8137" gradientUnits="userSpaceOnUse">
<stop stop-color="#9BF0DF"/>
<stop offset="0.058" stop-color="#A1F0DC"/>
<stop offset="0.698" stop-color="#E2F2BF"/>
<stop offset="1" stop-color="#FCF3B3"/>
</linearGradient>
<linearGradient id="paint63_linear_3735_1130" x1="41.3945" y1="29.491" x2="43.4107" y2="29.491" gradientUnits="userSpaceOnUse">
<stop stop-color="#1A4C4E"/>
<stop offset="1" stop-color="#236568"/>
</linearGradient>
<linearGradient id="paint64_linear_3735_1130" x1="41.3945" y1="28.9951" x2="43.4107" y2="28.9951" gradientUnits="userSpaceOnUse">
<stop stop-color="#2F878A"/>
<stop offset="1" stop-color="#06DAAE"/>
</linearGradient>
<linearGradient id="paint65_linear_3735_1130" x1="41.5117" y1="29.063" x2="43.2932" y2="29.063" gradientUnits="userSpaceOnUse">
<stop stop-color="#9BF0DF"/>
<stop offset="1" stop-color="#FCF3B3"/>
</linearGradient>
<linearGradient id="paint66_linear_3735_1130" x1="41.8447" y1="29.2554" x2="42.9595" y2="29.2554" gradientUnits="userSpaceOnUse">
<stop stop-color="#9BF0DF"/>
<stop offset="0.058" stop-color="#A1F0DC"/>
<stop offset="0.698" stop-color="#E2F2BF"/>
<stop offset="1" stop-color="#FCF3B3"/>
</linearGradient>
<linearGradient id="paint67_linear_3735_1130" x1="40.8662" y1="30.4216" x2="42.8824" y2="30.4216" gradientUnits="userSpaceOnUse">
<stop stop-color="#1A4C4E"/>
<stop offset="1" stop-color="#236568"/>
</linearGradient>
<linearGradient id="paint68_linear_3735_1130" x1="40.8662" y1="29.926" x2="42.8824" y2="29.926" gradientUnits="userSpaceOnUse">
<stop stop-color="#2F878A"/>
<stop offset="1" stop-color="#06DAAE"/>
</linearGradient>
<linearGradient id="paint69_linear_3735_1130" x1="40.9834" y1="29.9937" x2="42.7649" y2="29.9937" gradientUnits="userSpaceOnUse">
<stop stop-color="#9BF0DF"/>
<stop offset="1" stop-color="#FCF3B3"/>
</linearGradient>
<linearGradient id="paint70_linear_3735_1130" x1="41.3174" y1="30.1863" x2="42.4321" y2="30.1863" gradientUnits="userSpaceOnUse">
<stop stop-color="#9BF0DF"/>
<stop offset="0.058" stop-color="#A1F0DC"/>
<stop offset="0.698" stop-color="#E2F2BF"/>
<stop offset="1" stop-color="#FCF3B3"/>
</linearGradient>
<linearGradient id="paint71_linear_3735_1130" x1="39.5488" y1="30.0735" x2="41.565" y2="30.0735" gradientUnits="userSpaceOnUse">
<stop stop-color="#1A4C4E"/>
<stop offset="1" stop-color="#236568"/>
</linearGradient>
<linearGradient id="paint72_linear_3735_1130" x1="39.5488" y1="29.5776" x2="41.565" y2="29.5776" gradientUnits="userSpaceOnUse">
<stop stop-color="#2F878A"/>
<stop offset="1" stop-color="#06DAAE"/>
</linearGradient>
<linearGradient id="paint73_linear_3735_1130" x1="39.666" y1="29.6455" x2="41.4475" y2="29.6455" gradientUnits="userSpaceOnUse">
<stop stop-color="#9BF0DF"/>
<stop offset="1" stop-color="#FCF3B3"/>
</linearGradient>
<linearGradient id="paint74_linear_3735_1130" x1="39.999" y1="29.8379" x2="41.1137" y2="29.8379" gradientUnits="userSpaceOnUse">
<stop stop-color="#9BF0DF"/>
<stop offset="0.058" stop-color="#A1F0DC"/>
<stop offset="0.698" stop-color="#E2F2BF"/>
<stop offset="1" stop-color="#FCF3B3"/>
</linearGradient>
<linearGradient id="paint75_linear_3735_1130" x1="34.001" y1="28.4976" x2="36.0171" y2="28.4976" gradientUnits="userSpaceOnUse">
<stop stop-color="#1A4C4E"/>
<stop offset="1" stop-color="#236568"/>
</linearGradient>
<linearGradient id="paint76_linear_3735_1130" x1="34.001" y1="28.0017" x2="36.0171" y2="28.0017" gradientUnits="userSpaceOnUse">
<stop stop-color="#2F878A"/>
<stop offset="1" stop-color="#06DAAE"/>
</linearGradient>
<linearGradient id="paint77_linear_3735_1130" x1="34.1182" y1="28.0696" x2="35.8996" y2="28.0696" gradientUnits="userSpaceOnUse">
<stop stop-color="#9BF0DF"/>
<stop offset="1" stop-color="#FCF3B3"/>
</linearGradient>
<linearGradient id="paint78_linear_3735_1130" x1="34.4521" y1="28.262" x2="35.5669" y2="28.262" gradientUnits="userSpaceOnUse">
<stop stop-color="#9BF0DF"/>
<stop offset="0.058" stop-color="#A1F0DC"/>
<stop offset="0.698" stop-color="#E2F2BF"/>
<stop offset="1" stop-color="#FCF3B3"/>
</linearGradient>
<linearGradient id="paint79_linear_3735_1130" x1="25.875" y1="24.2231" x2="26.3476" y2="24.2231" gradientUnits="userSpaceOnUse">
<stop stop-color="#43386B"/>
<stop offset="1" stop-color="#594A8E"/>
</linearGradient>
<linearGradient id="paint80_linear_3735_1130" x1="25.875" y1="26.365" x2="26.3476" y2="26.365" gradientUnits="userSpaceOnUse">
<stop stop-color="#43386B"/>
<stop offset="1" stop-color="#594A8E"/>
</linearGradient>
<linearGradient id="paint81_linear_3735_1130" x1="25.875" y1="30.6487" x2="26.3476" y2="30.6487" gradientUnits="userSpaceOnUse">
<stop stop-color="#43386B"/>
<stop offset="1" stop-color="#594A8E"/>
</linearGradient>
<clipPath id="clip0_3735_1130">
<rect width="40" height="40" fill="white" transform="translate(14 14.5)"/>
</clipPath>
</defs>
</svg>
