<svg width="140" height="55" viewBox="0 0 140 55" fill="none" xmlns="http://www.w3.org/2000/svg">
<g clip-path="url(#clip0_3735_655)">
<path d="M18.3095 24.417L17.4434 25.8382L18.2903 24.417H18.3095Z" fill="white"/>
<path d="M31.4355 54.4679L32.7835 51.8856C35.0699 47.5048 34.7116 42.192 31.8584 38.1663H31.6853L21.7524 54.4679H0L17.4347 25.8526L17.4432 25.8386L18.3093 24.4178H31.5587V32.9376L54.9287 19.3355L31.5587 5.73263V14.2532H18.2901L10.096 0.503906H46.4365C56.7014 0.503906 65.196 9.00463 65.1644 19.3947C65.1486 24.5716 63.0696 29.2563 59.7158 32.6509C57.8685 34.52 55.6356 35.9985 53.1468 36.9519L53.7651 37.8536C56.3836 41.6704 56.8026 46.6075 54.8652 50.82L53.1875 54.4679" fill="#FFD67E"/>
</g>
<path d="M71.3127 37.3134L71.7257 34.7723H82.6527L82.2398 37.3134H71.3127ZM74.6798 17.6193L75.0927 15.0781H86.0198L85.5751 17.6193H74.6798ZM73.1551 26.4817L73.568 23.9722H83.8916L83.4468 26.4817H73.1551ZM73.5998 15.0781H76.2998L72.4563 37.3134H69.8515L73.5998 15.0781Z" fill="white"/>
<path d="M86.9149 22.7017H89.6784L92.0926 32.9299L97.6514 22.7017H100.542L91.2667 38.457L86.9149 22.7017Z" fill="white"/>
<path d="M105.85 37.6311C104.643 37.6311 103.584 37.3664 102.674 36.837C101.763 36.3075 101.054 35.5452 100.545 34.5499C100.037 33.5546 99.7831 32.3581 99.7831 30.9605C99.7831 29.817 99.9843 28.737 100.387 27.7205C100.81 26.6828 101.382 25.7722 102.102 24.9887C102.843 24.184 103.701 23.5487 104.675 23.0828C105.67 22.617 106.75 22.384 107.915 22.384C109.143 22.384 110.191 22.6275 111.06 23.1146C111.949 23.6017 112.637 24.3217 113.124 25.2746C113.611 26.2064 113.855 27.3711 113.855 28.7687C113.855 29.0864 113.813 29.4358 113.728 29.817C113.664 30.1981 113.59 30.4734 113.505 30.6428H101.34V28.4828H111.822L110.837 29.944C110.943 29.6899 111.038 29.4252 111.123 29.1499C111.208 28.8534 111.25 28.557 111.25 28.2605C111.25 27.4981 111.113 26.8522 110.837 26.3228C110.583 25.7722 110.202 25.3487 109.694 25.0522C109.185 24.7558 108.54 24.6075 107.756 24.6075C106.951 24.6075 106.21 24.777 105.533 25.1158C104.876 25.4334 104.304 25.8781 103.817 26.4499C103.33 27.0217 102.949 27.6887 102.674 28.4511C102.42 29.1922 102.293 29.9758 102.293 30.8017C102.293 31.6699 102.43 32.4428 102.705 33.1205C102.981 33.7981 103.404 34.3275 103.976 34.7087C104.548 35.0687 105.278 35.2487 106.168 35.2487C107.163 35.2487 108.063 35.0052 108.868 34.5181C109.694 34.0099 110.371 33.3746 110.901 32.6123L112.902 33.9146C112.14 34.9946 111.165 35.884 109.98 36.5828C108.794 37.2817 107.417 37.6311 105.85 37.6311Z" fill="white"/>
<path d="M126.243 28.4193C126.328 27.7628 126.317 27.1593 126.211 26.6087C126.105 26.0581 125.873 25.6134 125.513 25.2746C125.153 24.9358 124.623 24.7664 123.924 24.7664C123.204 24.7664 122.537 24.9252 121.923 25.2428C121.33 25.5393 120.833 25.9522 120.43 26.4817C120.049 27.0111 119.805 27.6146 119.7 28.2922L118.111 37.3134H115.57L118.111 22.7017H120.621L120.271 24.8934C120.822 24.0887 121.468 23.4746 122.209 23.0511C122.95 22.6064 123.808 22.384 124.782 22.384C125.862 22.384 126.709 22.6487 127.323 23.1781C127.958 23.7075 128.393 24.4064 128.625 25.2746C128.88 26.1428 128.933 27.0852 128.784 28.1017L127.196 37.3134H124.718L126.243 28.4193Z" fill="white"/>
<path d="M132.176 22.7017H139.292L138.879 25.084H131.732L132.176 22.7017ZM135.258 17.6193H137.831L134.4 37.3134H131.954L135.258 17.6193Z" fill="white"/>
<path d="M70.4198 48.873L70.9424 47.8534H74.804L75.0079 48.873H70.4198ZM73.4275 44.6418L71.3629 48.1848L71.2227 48.4142L69.3875 51.5493H68.1641L73.8226 42.1566L76.2313 51.5493H75.0716L74.3324 48.4906L74.2814 48.2357L73.4275 44.6418Z" fill="white"/>
<path d="M82.1148 51.9317H83.1216C83.1046 52.2205 83.1471 52.4839 83.2491 52.7218C83.351 52.9597 83.5167 53.1509 83.7461 53.2953C83.984 53.4398 84.2814 53.512 84.6382 53.512C84.9866 53.512 85.3179 53.427 85.6323 53.2571C85.9467 53.0872 86.2101 52.8408 86.4225 52.5179C86.6434 52.2035 86.7836 51.8382 86.843 51.4219L87.8371 45.6868H88.8439L87.8626 51.4219C87.7776 52.0166 87.5822 52.5434 87.2764 53.0022C86.979 53.461 86.6009 53.8178 86.1421 54.0727C85.6918 54.3361 85.1862 54.4678 84.6255 54.4678C84.0817 54.4678 83.6102 54.3574 83.2108 54.1365C82.82 53.924 82.5269 53.6267 82.3315 53.2443C82.1361 52.862 82.0638 52.4244 82.1148 51.9317ZM82.5609 48.6181C82.6458 48.0403 82.8455 47.5221 83.1599 47.0633C83.4827 46.596 83.8778 46.2264 84.3451 45.9545C84.8209 45.6826 85.3349 45.5509 85.8872 45.5594C86.278 45.5594 86.6051 45.6444 86.8685 45.8143C87.1404 45.9842 87.3528 46.2136 87.5058 46.5025C87.6587 46.7914 87.7564 47.1185 87.7989 47.4838C87.8499 47.8407 87.8499 48.2188 87.7989 48.6181C87.7394 49.0344 87.6289 49.4295 87.4675 49.8033C87.3061 50.1687 87.1022 50.4915 86.8558 50.7719C86.6094 51.0523 86.3205 51.2732 85.9892 51.4346C85.6663 51.5876 85.3094 51.664 84.9186 51.664C84.3664 51.664 83.8991 51.5281 83.5167 51.2562C83.1429 50.9758 82.871 50.6062 82.7011 50.1474C82.5311 49.6801 82.4844 49.1703 82.5609 48.6181ZM83.5804 48.6181C83.5295 48.9919 83.555 49.3403 83.6569 49.6631C83.7589 49.9775 83.933 50.2324 84.1794 50.4278C84.4343 50.6147 84.7487 50.7082 85.1225 50.7082C85.3774 50.7082 85.6238 50.6572 85.8617 50.5552C86.1081 50.4448 86.3333 50.2961 86.5372 50.1092C86.7411 49.9138 86.911 49.6886 87.0469 49.4337C87.1914 49.1788 87.2891 48.907 87.3401 48.6181C87.3826 48.3377 87.3783 48.0743 87.3273 47.8279C87.2764 47.5815 87.1871 47.3606 87.0597 47.1652C86.9322 46.9698 86.7708 46.8169 86.5754 46.7064C86.3885 46.5875 86.1676 46.5237 85.9127 46.5152C85.5388 46.5067 85.1863 46.596 84.8549 46.7829C84.5235 46.9613 84.2432 47.2119 84.0138 47.5348C83.7928 47.8577 83.6484 48.2188 83.5804 48.6181Z" fill="white"/>
<path d="M97.4176 51.6768C96.9333 51.6768 96.5085 51.5706 96.1431 51.3582C95.7778 51.1457 95.4932 50.8399 95.2893 50.4405C95.0853 50.0412 94.9834 49.5612 94.9834 49.0004C94.9834 48.5416 95.0641 48.1083 95.2255 47.7005C95.3955 47.2842 95.6249 46.9188 95.9137 46.6045C96.2111 46.2816 96.5552 46.0267 96.946 45.8398C97.3454 45.6529 97.7787 45.5594 98.246 45.5594C98.7388 45.5594 99.1593 45.6571 99.5077 45.8525C99.8645 46.0479 100.141 46.3368 100.336 46.7192C100.532 47.093 100.629 47.5603 100.629 48.121C100.629 48.2485 100.612 48.3887 100.578 48.5416C100.553 48.6946 100.523 48.805 100.489 48.873H95.6079V48.0063H99.8136L99.4185 48.5926C99.461 48.4906 99.4992 48.3844 99.5332 48.274C99.5672 48.155 99.5842 48.0361 99.5842 47.9171C99.5842 47.6113 99.5289 47.3521 99.4185 47.1397C99.3165 46.9188 99.1636 46.7489 98.9597 46.6299C98.7558 46.511 98.4966 46.4515 98.1823 46.4515C97.8594 46.4515 97.562 46.5195 97.2901 46.6554C97.0268 46.7829 96.7974 46.9613 96.6019 47.1907C96.4065 47.4201 96.2536 47.6877 96.1431 47.9936C96.0412 48.291 95.9902 48.6053 95.9902 48.9367C95.9902 49.285 96.0454 49.5952 96.1559 49.867C96.2663 50.1389 96.4363 50.3513 96.6657 50.5043C96.8951 50.6487 97.1882 50.7209 97.545 50.7209C97.9444 50.7209 98.3055 50.6232 98.6283 50.4278C98.9597 50.2239 99.2316 49.969 99.444 49.6631L100.247 50.1857C99.941 50.619 99.5502 50.9758 99.0744 51.2562C98.5986 51.5366 98.0463 51.6768 97.4176 51.6768Z" fill="white"/>
<path d="M110.952 47.9809C110.986 47.7175 110.982 47.4753 110.94 47.2544C110.897 47.0335 110.804 46.8551 110.659 46.7192C110.515 46.5832 110.302 46.5152 110.022 46.5152C109.733 46.5152 109.465 46.579 109.219 46.7064C108.981 46.8254 108.781 46.991 108.62 47.2034C108.467 47.4159 108.369 47.658 108.327 47.9299L107.69 51.5493H106.67L107.69 45.6868H108.696L108.556 46.5662C108.777 46.2434 109.036 45.997 109.334 45.827C109.631 45.6486 109.975 45.5594 110.366 45.5594C110.799 45.5594 111.139 45.6656 111.386 45.878C111.64 46.0904 111.815 46.3708 111.908 46.7192C112.01 47.0675 112.031 47.4456 111.972 47.8534L111.335 51.5493H110.341L110.952 47.9809Z" fill="white"/>
<path d="M119.565 48.6181C119.514 48.9749 119.539 49.3148 119.641 49.6376C119.752 49.952 119.934 50.2069 120.189 50.4023C120.444 50.5977 120.763 50.6997 121.145 50.7082C121.595 50.7167 122.012 50.6147 122.394 50.4023C122.785 50.1899 123.091 49.9435 123.312 49.6631L123.133 50.9248C122.87 51.1542 122.556 51.3369 122.19 51.4729C121.833 51.6003 121.455 51.664 121.056 51.664C120.495 51.664 120.011 51.5238 119.603 51.2435C119.204 50.9631 118.911 50.5935 118.724 50.1347C118.537 49.6674 118.477 49.1618 118.545 48.6181C118.622 48.0488 118.817 47.5348 119.132 47.076C119.454 46.6172 119.858 46.2519 120.342 45.98C120.827 45.6996 121.358 45.5594 121.935 45.5594C122.309 45.5594 122.662 45.6231 122.993 45.7506C123.333 45.878 123.613 46.0649 123.834 46.3113L123.656 47.5858C123.52 47.2629 123.291 47.0038 122.968 46.8084C122.653 46.6129 122.284 46.5152 121.859 46.5152C121.468 46.5152 121.107 46.6129 120.776 46.8084C120.453 46.9953 120.185 47.2459 119.973 47.5603C119.76 47.8747 119.624 48.2273 119.565 48.6181Z" fill="white"/>
<path d="M135.341 45.6868L130.141 54.3404H128.981L131.199 50.6827L129.873 45.6868H130.995L132.066 50.2749L131.658 50.2111L134.181 45.6868H135.341Z" fill="white"/>
<defs>
<clipPath id="clip0_3735_655">
<rect width="65.164" height="53.964" fill="white" transform="translate(0 0.503906)"/>
</clipPath>
</defs>
</svg>
