<svg width="18" height="11" viewBox="0 0 18 11" fill="none" xmlns="http://www.w3.org/2000/svg">
<path d="M1.72213 10.9576H16.2762C16.7765 10.9576 17.1858 10.5482 17.1858 10.0479C17.1858 9.54763 16.7765 9.13829 16.2762 9.13829H1.72213C1.22183 9.13829 0.8125 9.54763 0.8125 10.0479C0.8125 10.5482 1.22183 10.9576 1.72213 10.9576ZM1.72213 6.4094H16.2762C16.7765 6.4094 17.1858 6.00007 17.1858 5.49977C17.1858 4.99948 16.7765 4.59014 16.2762 4.59014H1.72213C1.22183 4.59014 0.8125 4.99948 0.8125 5.49977C0.8125 6.00007 1.22183 6.4094 1.72213 6.4094ZM0.8125 0.951622C0.8125 1.45192 1.22183 1.86125 1.72213 1.86125H16.2762C16.7765 1.86125 17.1858 1.45192 17.1858 0.951622C17.1858 0.451326 16.7765 0.0419922 16.2762 0.0419922H1.72213C1.22183 0.0419922 0.8125 0.451326 0.8125 0.951622Z" fill="black"/>
</svg>
