<svg width="32" height="33" viewBox="0 0 32 33" fill="none" xmlns="http://www.w3.org/2000/svg">
<path d="M16 32.4858C24.8366 32.4858 32 25.3224 32 16.4858C32 7.64928 24.8366 0.48584 16 0.48584C7.16344 0.48584 0 7.64928 0 16.4858C0 25.3224 7.16344 32.4858 16 32.4858Z" fill="white"/>
<path d="M23.6253 12.6375C23.3053 11.6438 22.2464 11.0565 21.2632 10.9196C17.7587 10.547 14.2246 10.547 10.7201 10.9196C9.74533 11.0565 8.68639 11.6522 8.36639 12.6375C7.86745 15.1796 7.86745 17.7944 8.36639 20.3365C8.69481 21.328 9.75375 21.9175 10.7369 22.0543C14.2415 22.4249 17.7755 22.4249 21.2801 22.0543C22.2548 21.9175 23.3138 21.3196 23.6338 20.3365C24.1299 17.7938 24.127 15.179 23.6253 12.6375ZM14.0864 19.5512V13.4207L19.078 16.4859C17.3959 17.5196 15.7622 18.5259 14.0864 19.5512Z" fill="black"/>
</svg>
