<svg width="64" height="72" viewBox="0 0 64 72" fill="none" xmlns="http://www.w3.org/2000/svg">
<path d="M7.97656 71.9376C6.77739 71.9354 5.59944 71.621 4.55859 71.0255C2.21484 69.6974 0.757812 67.1192 0.757812 64.3204V7.67979C0.757812 4.87315 2.21484 2.30283 4.55859 0.97471C5.62423 0.362281 6.8348 0.0473378 8.06378 0.0627989C9.29277 0.07826 10.495 0.423558 11.5449 1.0626L59.9531 30.0392C60.962 30.6718 61.7937 31.5502 62.3702 32.5922C62.9467 33.6341 63.2491 34.8054 63.2491 35.9962C63.2491 37.187 62.9467 38.3583 62.3702 39.4002C61.7937 40.4422 60.962 41.3206 59.9531 41.9532L11.5371 70.9376C10.4627 71.5872 9.23206 71.9328 7.97656 71.9376Z" fill="white"/>
</svg>
