<svg width="107" height="17" viewBox="0 0 107 17" fill="none" xmlns="http://www.w3.org/2000/svg">
<path d="M14.6987 7.66102L11.8755 10.0971L12.7356 13.7402C12.7831 13.938 12.7709 14.1454 12.7005 14.3362C12.6301 14.527 12.5048 14.6927 12.3403 14.8124C12.1759 14.932 11.9796 15.0002 11.7764 15.0083C11.5732 15.0165 11.3721 14.9642 11.1986 14.8582L8.03037 12.9083L4.86028 14.8582C4.68677 14.9636 4.48593 15.0154 4.28306 15.0069C4.08019 14.9985 3.88436 14.9302 3.72023 14.8107C3.55609 14.6911 3.431 14.5257 3.36069 14.3352C3.29038 14.1447 3.278 13.9377 3.32511 13.7402L4.18837 10.0971L1.36522 7.66102C1.2117 7.52834 1.10067 7.35337 1.046 7.15796C0.99133 6.96255 0.99544 6.75537 1.05782 6.56229C1.12019 6.3692 1.23807 6.19878 1.39673 6.07229C1.55539 5.9458 1.74779 5.86885 1.94992 5.85106L5.65139 5.55244L7.07928 2.0969C7.15657 1.90857 7.28811 1.74748 7.45719 1.63411C7.62626 1.52074 7.82523 1.46021 8.0288 1.46021C8.23237 1.46021 8.43133 1.52074 8.60041 1.63411C8.76949 1.74748 8.90103 1.90857 8.97832 2.0969L10.4056 5.55244L14.107 5.85106C14.3096 5.86819 14.5025 5.94471 14.6618 6.07102C14.821 6.19734 14.9394 6.36783 15.0022 6.56115C15.065 6.75447 15.0693 6.96201 15.0146 7.15777C14.96 7.35354 14.8487 7.52881 14.6949 7.66164L14.6987 7.66102Z" fill="#FFD67E"/>
<path d="M36.7592 7.66102L33.936 10.0971L34.7962 13.7402C34.8436 13.938 34.8314 14.1454 34.7611 14.3362C34.6907 14.527 34.5654 14.6927 34.4009 14.8124C34.2364 14.932 34.0402 15.0002 33.837 15.0083C33.6337 15.0165 33.4327 14.9642 33.2591 14.8582L30.0909 12.9083L26.9208 14.8582C26.7473 14.9636 26.5465 15.0154 26.3436 15.0069C26.1407 14.9985 25.9449 14.9302 25.7808 14.8107C25.6166 14.6911 25.4915 14.5257 25.4212 14.3352C25.3509 14.1447 25.3385 13.9377 25.3857 13.7402L26.2489 10.0971L23.4258 7.66102C23.2722 7.52834 23.1612 7.35337 23.1065 7.15796C23.0519 6.96255 23.056 6.75537 23.1184 6.56229C23.1807 6.3692 23.2986 6.19878 23.4573 6.07229C23.6159 5.9458 23.8083 5.86885 24.0105 5.85106L27.7119 5.55244L29.1398 2.0969C29.2171 1.90857 29.3487 1.74748 29.5177 1.63411C29.6868 1.52074 29.8858 1.46021 30.0893 1.46021C30.2929 1.46021 30.4919 1.52074 30.661 1.63411C30.83 1.74748 30.9616 1.90857 31.0389 2.0969L32.4661 5.55244L36.1676 5.85106C36.3701 5.86819 36.5631 5.94471 36.7223 6.07102C36.8816 6.19734 37 6.36783 37.0627 6.56115C37.1255 6.75447 37.1298 6.96201 37.0752 7.15777C37.0205 7.35354 36.9093 7.52881 36.7554 7.66164L36.7592 7.66102Z" fill="#FFD67E"/>
<path d="M59.8197 7.66102L56.9966 10.0971L57.8567 13.7402C57.9042 13.938 57.892 14.1454 57.8216 14.3362C57.7512 14.527 57.6259 14.6927 57.4614 14.8124C57.297 14.932 57.1007 15.0002 56.8975 15.0083C56.6943 15.0165 56.4932 14.9642 56.3197 14.8582L53.1515 12.9083L49.9814 14.8582C49.8079 14.9636 49.607 15.0154 49.4042 15.0069C49.2013 14.9985 49.0055 14.9302 48.8413 14.8107C48.6772 14.6911 48.5521 14.5257 48.4818 14.3352C48.4115 14.1447 48.3991 13.9377 48.4462 13.7402L49.3095 10.0971L46.4863 7.66102C46.3328 7.52834 46.2218 7.35337 46.1671 7.15796C46.1124 6.96255 46.1165 6.75537 46.1789 6.56229C46.2413 6.3692 46.3592 6.19878 46.5178 6.07229C46.6765 5.9458 46.8689 5.86885 47.071 5.85106L50.7725 5.55244L52.2004 2.0969C52.2777 1.90857 52.4092 1.74748 52.5783 1.63411C52.7474 1.52074 52.9463 1.46021 53.1499 1.46021C53.3535 1.46021 53.5524 1.52074 53.7215 1.63411C53.8906 1.74748 54.0221 1.90857 54.0994 2.0969L55.5267 5.55244L59.2281 5.85106C59.4307 5.86819 59.6236 5.94471 59.7829 6.07102C59.9421 6.19734 60.0605 6.36783 60.1233 6.56115C60.1861 6.75447 60.1904 6.96201 60.1357 7.15777C60.081 7.35354 59.9698 7.52881 59.816 7.66164L59.8197 7.66102Z" fill="#FFD67E"/>
<path d="M81.8803 7.66102L79.0571 10.0971L79.9173 13.7402C79.9647 13.938 79.9525 14.1454 79.8821 14.3362C79.8118 14.527 79.6865 14.6927 79.522 14.8124C79.3575 14.932 79.1613 15.0002 78.958 15.0083C78.7548 15.0165 78.5537 14.9642 78.3802 14.8582L75.212 12.9083L72.0419 14.8582C71.8684 14.9636 71.6676 15.0154 71.4647 15.0069C71.2618 14.9985 71.066 14.9302 70.9019 14.8107C70.7377 14.6911 70.6126 14.5257 70.5423 14.3352C70.472 14.1447 70.4596 13.9377 70.5068 13.7402L71.37 10.0971L68.5469 7.66102C68.3933 7.52834 68.2823 7.35337 68.2276 7.15796C68.173 6.96255 68.1771 6.75537 68.2395 6.56229C68.3018 6.3692 68.4197 6.19878 68.5784 6.07229C68.737 5.9458 68.9294 5.86885 69.1316 5.85106L72.833 5.55244L74.2609 2.0969C74.3382 1.90857 74.4698 1.74748 74.6388 1.63411C74.8079 1.52074 75.0069 1.46021 75.2104 1.46021C75.414 1.46021 75.613 1.52074 75.7821 1.63411C75.9511 1.74748 76.0827 1.90857 76.16 2.0969L77.5872 5.55244L81.2887 5.85106C81.4912 5.86819 81.6842 5.94471 81.8434 6.07102C82.0027 6.19734 82.1211 6.36783 82.1838 6.56115C82.2466 6.75447 82.2509 6.96201 82.1963 7.15777C82.1416 7.35354 82.0304 7.52881 81.8765 7.66164L81.8803 7.66102Z" fill="#FFD67E"/>
<path d="M104.941 7.66102L102.118 10.0971L102.978 13.7402C103.025 13.938 103.013 14.1454 102.943 14.3362C102.872 14.527 102.747 14.6927 102.583 14.8124C102.418 14.932 102.222 15.0002 102.019 15.0083C101.815 15.0165 101.614 14.9642 101.441 14.8582L98.2726 12.9083L95.1025 14.8582C94.929 14.9636 94.7281 15.0154 94.5253 15.0069C94.3224 14.9985 94.1266 14.9302 93.9624 14.8107C93.7983 14.6911 93.6732 14.5257 93.6029 14.3352C93.5326 14.1447 93.5202 13.9377 93.5673 13.7402L94.4306 10.0971L91.6074 7.66102C91.4539 7.52834 91.3429 7.35337 91.2882 7.15796C91.2335 6.96255 91.2376 6.75537 91.3 6.56229C91.3624 6.3692 91.4803 6.19878 91.6389 6.07229C91.7976 5.9458 91.99 5.86885 92.1921 5.85106L95.8936 5.55244L97.3215 2.0969C97.3988 1.90857 97.5303 1.74748 97.6994 1.63411C97.8684 1.52074 98.0674 1.46021 98.271 1.46021C98.4746 1.46021 98.6735 1.52074 98.8426 1.63411C99.0117 1.74748 99.1432 1.90857 99.2205 2.0969L100.648 5.55244L104.349 5.85106C104.552 5.86819 104.745 5.94471 104.904 6.07102C105.063 6.19734 105.182 6.36783 105.244 6.56115C105.307 6.75447 105.311 6.96201 105.257 7.15777C105.202 7.35354 105.091 7.52881 104.937 7.66164L104.941 7.66102Z" fill="#FFD67E"/>
</svg>
